<svg xmlns="http://www.w3.org/2000/svg" width="91.928" height="26.566" viewBox="0 0 91.928 26.566">
  <g id="apli" transform="translate(798.432 984.251)">
    <path id="Path_97" data-name="Path 97" d="M-763.057-954.934h-10.049c-.247-.88-.5-1.768-.746-2.657-.109-.389-.232-.774-.319-1.168a.353.353,0,0,0-.411-.327c-1.947.009-3.893.013-5.84,0-.316,0-.377.156-.433.4-.3,1.271-.6,2.54-.907,3.826h-9.809c.156-.561.3-1.09.45-1.618q3.283-11.51,6.558-23.023c.11-.388.276-.486.662-.485q6.307.021,12.613,0a.486.486,0,0,1,.559.411q3.764,12.084,7.545,24.162C-763.137-955.268-763.1-955.112-763.057-954.934Zm-14.243-18.22-.12,0-2.223,9.261h4.479Z" transform="translate(-4.542 -2.819)" fill="#e50000"/>
    <path id="Path_98" data-name="Path 98" d="M-690.548-955.1h-9.35v-25.113h.433c6.231,0,12.462.031,18.692-.017a4.6,4.6,0,0,1,4.893,4.055,4.734,4.734,0,0,1,.093.921c.008,2.157-.074,4.317.027,6.47.093,1.974-2.316,4.918-4.866,4.831-3.132-.107-6.27-.025-9.406-.025h-.518Zm-.159-20.3v6.922c.823,0,1.617,0,2.412,0a2.863,2.863,0,0,0,2.885-2.565,9.9,9.9,0,0,0-.024-1.853,2.654,2.654,0,0,0-2.289-2.479A23.6,23.6,0,0,0-690.708-975.4Z" transform="translate(-65.229 -2.659)" fill="#e50000"/>
    <path id="Path_99" data-name="Path 99" d="M-600.986-960.733v5.7h-19.322V-980.11h9.541v19.377Z" transform="translate(-117.918 -2.741)" fill="#e50000"/>
    <path id="Path_100" data-name="Path 100" d="M-555.224-980.375h9.723v25.034h-9.723Z" transform="translate(-161.003 -2.566)" fill="#e50000"/>
    <path id="Path_101" data-name="Path 101" d="M-795.906-979.256a2.508,2.508,0,0,1-2.526-2.511,2.541,2.541,0,0,1,2.527-2.484,2.545,2.545,0,0,1,2.548,2.505A2.512,2.512,0,0,1-795.906-979.256Zm.02-.3a2.135,2.135,0,0,0,2.155-2.2,2.153,2.153,0,0,0-2.173-2.19,2.153,2.153,0,0,0-2.153,2.208A2.136,2.136,0,0,0-795.886-979.557Z" transform="translate(0 0)" fill="#e50000"/>
    <path id="Path_102" data-name="Path 102" d="M-791.608-978.2a1.736,1.736,0,0,1-.419-.288,3.983,3.983,0,0,1-.474-.749.482.482,0,0,0-.653-.292c-.109.045-.147.317-.174.493s.008.378-.017.563c-.01.076-.11.139-.169.208-.049-.065-.139-.129-.14-.194-.009-.886-.006-1.771-.006-2.693.525,0,1.02-.036,1.508.013a.648.648,0,0,1,.586.627.75.75,0,0,1-.395.849c-.1.047-.2.082-.34.14l.785,1.21Zm-1.7-1.681a8.191,8.191,0,0,0,.922-.008.463.463,0,0,0,.465-.468.453.453,0,0,0-.453-.476,8.352,8.352,0,0,0-.933-.008Z" transform="translate(-3.158 -2.046)" fill="#e50000"/>
  </g>
</svg>
