<svg xmlns="http://www.w3.org/2000/svg" viewBox="0 0 1020 198.08"><defs><style>.cls-1{fill:#8c983d;}.cls-2{fill:#664d39;}</style></defs><g id="Layer_2" data-name="Layer 2"><g id="Layer_1-2" data-name="Layer 1"><path class="cls-1" d="M0,85.07c2.2-2.91,1.88-6.55,2.71-9.84C14.43,28.46,56.08-1.88,106.05.09,150.78,1.86,190.54,38,197.78,83.4c9.57,60-37,114.68-97.72,114.68-48.68,0-88.58-32.48-98.45-80-.34-1.66.19-3.74-1.61-5Zm99.4-71c-47,0-85.39,38.21-85.39,85s38.37,85,85.34,85,85.47-38.27,85.49-85S146.32,14.08,99.4,14.08Z"/><path class="cls-2" d="M1020,135.07c-5-2-10.18,0-15.65-1.13l-14-26.76H972.65v26.71a59,59,0,0,1-13.34.12V65.46c.29-.27.52-.67.77-.68,13.64-.43,27.31-.84,40.91.55,9.21.94,15.2,6.69,17,15.18,1.68,8.12-2.23,18.06-8.87,22.41-1.37.89-2.83,1.66-4.53,2.66,5.52,8.77,9,18.48,15.44,26.49ZM972.77,95.9c8,0,15.48.29,22.9-.09,5.7-.3,8.57-3.85,8.75-9.5.14-4.52-2.52-8.55-6.82-9.09-8.19-1-16.43-.69-24.83-.4Z"/><path class="cls-2" d="M708.21,99.52a37.21,37.21,0,1,1-37.37-37.3A37,37,0,0,1,708.21,99.52Zm-37.48,22.63A22.74,22.74,0,1,0,648.18,99,22.86,22.86,0,0,0,670.73,122.15Z"/><path class="cls-2" d="M607,105.47l15.48,28.41H606.71l-14-26.8H575.09V134H562V64.62c10.77,0,21.5,0,32.23,0,2.66,0,5.32.24,8,.51,10,1,15.93,6.23,18.08,15.74,1.82,8-2.45,18-9.57,22.46C609.62,104,608.44,104.64,607,105.47Zm-31.83-9.65c8,0,15.81.36,23.56-.12C604,95.37,607.13,91,607,85.6c-.12-4.18-3.39-8.28-7.71-8.46-7.94-.34-15.9-.1-24.13-.1Z"/><path class="cls-2" d="M452.42,112.72h13.87c3.63,11.2,12.86,12.36,24.15,9.91a6.86,6.86,0,0,0,5.59-6.3c.38-3.49-2-5.07-4.48-6.51-4.37-2.54-9.29-3.52-14.12-4.74-3.86-1-7.8-1.74-11.57-3-8.48-2.8-12.57-8.18-12.87-16.39-.34-9.35,3.22-15.86,11.42-19.15a41.67,41.67,0,0,1,31.16-.37c8.44,3.23,12.69,10.08,12.52,19.17H494.71c-3.47-9.59-10.28-11.32-20.49-9.28-3.25.65-5.8,2.5-6.32,6.18-.57,4,2.07,5.64,5.1,7,5.36,2.4,11.25,2.84,16.81,4.53,2.54.77,5.14,1.37,7.67,2.19,7.55,2.46,12.86,7,13.5,15.44.73,9.75-3,17.08-11.36,20.87a41.63,41.63,0,0,1-35.76-.13A19.4,19.4,0,0,1,452.42,112.72Z"/><path class="cls-2" d="M793.07,86.92c-4.22,0-8-.17-11.84.06-3.34.2-4.5-2.58-6.36-4.26-9.7-8.68-20.48-9.87-30-3.09-10.39,7.38-12.26,25-3.73,35.3s23,11.07,33.11,1.53c1.69-1.59,3.17-3.4,5-5.37h14c-2.69,15.31-18.73,26-37.16,24.93-19.56-1.13-33.79-14.32-35-32.43-1.31-19.89,11.45-37.25,29.69-40.4C769.79,59.9,787.86,69.78,793.07,86.92Z"/><path class="cls-2" d="M822.16,134.07H809.71V64.85h12.11V93.67H852V64.91H865.9v69H852.11V106.6h-30Z"/><path class="cls-2" d="M928.28,95.07V106.6H902.91V123h36.72v11.1H889.17V65.18H939v11H903V95.07Z"/><path class="cls-2" d="M438,65.2V76.08H402V95.19h25.6v11.3H402V123h36.66a42.44,42.44,0,0,1,.17,11.13H388.14V65.2Z"/><path class="cls-2" d="M347.52,134.11H333c-8.33-22.9-16.67-45.81-25.18-69.22h15.11c5.67,16.75,11.44,33.83,17.57,52,6-18,11.65-35,17.32-52.12h15.26Z"/><path class="cls-2" d="M237.43,64.77h15.4L270,94.9l17.46-30.22h14.1c.94,1.8-.58,2.8-1.28,4-7,11.69-14.05,23.38-21.21,35a14,14,0,0,0-2.22,8c.16,7.32.05,14.64.05,22.21-4.58.92-9,.41-13.86.35,0-7.12-.16-14.08.06-21a17.78,17.78,0,0,0-3-10.72C253,91.36,246.12,80.13,239.23,69,238.49,67.74,237.25,66.7,237.43,64.77Z"/><path class="cls-1" d="M80.66,99C68.93,83.35,54.24,73.25,35,70.6c14.75-38.3,66-57.66,104.71-29.85-2.24,1.92-5.08,2.36-7.62,3.4-12.22,5-23.92,10.88-33.63,20.08A54.23,54.23,0,0,0,81.81,95.32,31.89,31.89,0,0,1,80.66,99Z"/><path class="cls-1" d="M29,84.13C41,84,51,89,59.92,96.64c11.69,10,18.07,22.77,18.92,38.19.59,10.61,1,21.22.76,31.85C48.19,163.63,20.57,118.83,29,84.13Z"/><path class="cls-1" d="M161.44,133.93c-17.81,1.33-33.85-2.56-47.21-16.1,28.66-18.3,29.72-46.09,26.85-75.3C168.28,59.92,180.58,100.92,161.44,133.93Z"/><path class="cls-1" d="M151,147.44c-9.91,15.23-38,26-57.3,22.19-.09-1.1-.25-2.24-.25-3.39-.1-18.82-.27-37.64-.23-56.45,0-20.6,15.71-42.81,35.3-49.66C131.28,87,114.63,101.6,95,114.49c6.51,9.66,14.31,17.71,24.17,23.65C128.81,144,139.44,146.83,151,147.44Z"/></g></g></svg>