<svg xmlns="http://www.w3.org/2000/svg" width="231.301" height="31.036" viewBox="0 0 231.301 31.036">
  <g id="lacaixa" transform="translate(675.203 745.493)">
    <path id="Path_150" data-name="Path 150" d="M-660.514-735.433a25.8,25.8,0,0,1-2.67-4.264c-.381-.767-.981-1.722-.331-2.459.551-.627,1.474-.088,2.228.085a14.593,14.593,0,0,1,6.272,3.437.958.958,0,0,0,1.307.177c3.43-1.736,6.439-4.2,9.968-5.756a7.219,7.219,0,0,0,1.5-1,1.332,1.332,0,0,1,1.458-.119c.514.3.167.863.058,1.275a4.488,4.488,0,0,1-.623,1.387c-1.661,2.395-3.021,5.011-5.148,7.065-.233.224-.414.5-.632.74-.4.441-.306.758.121,1.165a33.4,33.4,0,0,1,6.569,7.993,83.52,83.52,0,0,1,3.985,8.1c.109.265.236.51,0,.766s-.521.167-.773.072a21.026,21.026,0,0,1-4.077-2.082c-3.619-2.36-6.858-5.235-10.425-7.664-1-.679-1.97-1.388-2.981-2.1a4.313,4.313,0,0,0-.829,1.709,39.946,39.946,0,0,1-5.757,10.745,6.4,6.4,0,0,1-1.41,1.336c-.831.638-1.274.453-1.288-.615a23.718,23.718,0,0,1,.651-5.9c.658-2.743,1.423-5.448,2.346-8.112.384-1.109.346-1.141-.845-1.141a44.351,44.351,0,0,1-12.035-1.874,1.949,1.949,0,0,0-.264-.086c-.49-.064-1.008-.244-1.058-.741s.5-.743.893-.968a13.45,13.45,0,0,1,4.487-1.391C-666.76-736.187-663.734-735.753-660.514-735.433Z" transform="translate(0 0)" fill="#04a0e3"/>
    <path id="Path_151" data-name="Path 151" d="M-542.767-723.813h89.859c.372,0,.743,0,1.115,0,.257,0,.472.1.487.378s-.18.407-.442.416c-.326.01-.65.007-.975.007q-89.928,0-179.858-.02c-.473,0-1.365.386-1.385-.362-.022-.834.887-.4,1.339-.4Q-587.7-723.828-542.767-723.813Z" transform="translate(6.705 3.51)" fill="#434341"/>
    <path id="Path_152" data-name="Path 152" d="M-514.976-725.27a12.431,12.431,0,0,1-5.133-.907,7.817,7.817,0,0,1-4.777-8.56,7.943,7.943,0,0,1,6.8-6.606,16.261,16.261,0,0,1,6.612.487,1.13,1.13,0,0,1,1,1.237c.007.419.046.837.037,1.254-.006.294.144.7-.322.787a.734.734,0,0,1-.878-.469,4.339,4.339,0,0,0-2.909-2.192c-3.309-.872-5.943.6-6.839,3.918a9.844,9.844,0,0,0,.159,5.9c1.5,4.29,7.3,5.544,9.94,2.325.246-.3.491-.618.914-.357.37.229.155.569.08.877-.444,1.849-.506,1.921-2.443,2.124A10.784,10.784,0,0,1-514.976-725.27Z" transform="translate(24.426 0.651)" fill="#262725"/>
    <path id="Path_153" data-name="Path 153" d="M-591.927-727.151c-.756.621-1.333,1.068-1.88,1.554-.365.326-.66.177-1-.029a4.3,4.3,0,0,1-1.038-1c-.774.338-1.215,1.121-2.1,1.276a4.583,4.583,0,0,1-5.371-4.152,4.84,4.84,0,0,1,6.106-5.469c.353.074.7.159,1.15.261,0-1.165-.023-2.275.008-3.383.022-.823-.644-1.141-1.24-1.613,1.063-.713,2.208-.98,3.13-1.679.38-.288.551.094.551.476,0,1.114.047,2.231-.009,3.342-.146,2.923-.046,5.846-.064,8.769C-593.688-727.355-593.6-727.3-591.927-727.151Zm-4.037-2.655.044,0c-.054-.83-.079-1.664-.166-2.49a1.825,1.825,0,0,0-1.386-1.719,2.3,2.3,0,0,0-2.328.5c-1.668,1.625-1.154,5.34.9,6.461,1.536.838,2.924.064,2.937-1.637C-595.962-729.065-595.964-729.436-595.964-729.807Z" transform="translate(11.683 0.652)" fill="#2c2c2a"/>
    <path id="Path_154" data-name="Path 154" d="M-629-725.667h-5.129c.358-.7,1.242-.771,1.264-1.517.017-.6.016-1.207.03-1.81.069-2.972-.109-5.935-.271-8.9-.1-1.91-.068-1.912-1.368-2.959.176-.408.543-.253.829-.256,2.18-.012,4.361,0,6.541-.008a7.2,7.2,0,0,0,3.073-.359,10.1,10.1,0,0,1,.121,2.4c.009.214.062.486-.258.55-.28.056-.588.064-.752-.207-1.238-2.058-3.252-.987-4.935-1.223-.35-.049-.409.284-.412.584q-.019,2.366-.048,4.734c0,.309.057.552.436.544a20.194,20.194,0,0,0,3.333-.1,1.3,1.3,0,0,0,1.031-.842.453.453,0,0,1,.569-.273c.22.051.246.255.248.437,0,.929.006,1.858-.007,2.786,0,.172-.007.379-.245.436-.2.047-.44.006-.5-.146-.575-1.467-1.843-1.152-2.967-1.164-1.9-.019-1.9,0-1.9,1.867,0,.789.008,1.58-.027,2.368-.054,1.217-.223,2.472,1.571,2.788Z" transform="translate(6.623 0.653)" fill="#262725"/>
    <path id="Path_155" data-name="Path 155" d="M-550.632-726.58c-.122.044-.257.148-.364.124-1.086-.243-2.2.155-3.574-.131,1.151-.665.934-1.6.932-2.474,0-1.254.059-2.517-.056-3.763a1.8,1.8,0,0,0-2.66-1.658,1.236,1.236,0,0,0-.938,1.346c.026,1.673.072,3.351-.021,5.02-.043.751.56.964,1.036,1.648-1.5-.007-2.777-.117-4.133-.074,1.437-1.275.775-2.844.779-4.227,0-1.335.521-2.905-1.13-3.942,1.054-.546,2.175-.685,3.091-1.283.141-.092.423-.073.456.158.135.963.628.457,1.063.292a7.068,7.068,0,0,1,1.32-.427,2.806,2.806,0,0,1,3.453,2.55,43.191,43.191,0,0,1,.1,4.735c.024.725-.2,1.54.951,1.862Z" transform="translate(18.608 1.536)" fill="#2c2c2a"/>
    <path id="Path_156" data-name="Path 156" d="M-603.315-726.576c-1.327-.092-2.551.2-4.128.063,1.227-.793,1.1-1.778,1.073-2.751-.035-1.16.036-2.328-.065-3.481-.127-1.432-.993-2.146-2.2-1.884-.873.191-1.5.42-1.421,1.673.09,1.341.007,2.693.024,4.04.012.835-.339,1.807,1.116,2.158l-.35.2h-3.924c1.31-1.659,1.1-6.993-.308-8.194a24.245,24.245,0,0,0,3.06-1.239c.144-.092.439-.065.456.148.074.963.547.529,1,.332a6.39,6.39,0,0,1,1.18-.4,2.809,2.809,0,0,1,3.667,2.845c.036,1.346.035,2.7,0,4.042A2.687,2.687,0,0,0-603.315-726.576Z" transform="translate(10.034 1.536)" fill="#262725"/>
    <path id="Path_157" data-name="Path 157" d="M-617.474-735.515c.2-.161.269-.264.338-.264,1.143-.01,2.286-.008,3.739-.008-1.114.99-.913,2.069-.92,3.1-.008,1.208,0,2.416,0,3.623,0,.874-.01,1.759,1.386,1.49-1.093,1.32-1.974,1.518-3.058.716a.964.964,0,0,0-1.239-.083,4.814,4.814,0,0,1-1.54.607,3.2,3.2,0,0,1-4.075-3.162c-.052-1.251-.04-2.505-.063-3.759-.017-.853.221-1.78-.974-2.312l.32-.159h3.781c-1.23.782-.808,1.959-.821,3.008-.011.929-.043,1.86.012,2.787a2.333,2.333,0,0,0,3.392,2.082.905.905,0,0,0,.609-.966c-.02-1.718-.045-3.438.01-5.155C-616.555-734.693-617.063-735.081-617.474-735.515Z" transform="translate(8.345 1.578)" fill="#2c2c2a"/>
    <path id="Path_158" data-name="Path 158" d="M-565.646-736.03a5,5,0,0,1,5.26,4.957,4.985,4.985,0,0,1-5.161,4.906,4.952,4.952,0,0,1-5.312-4.875A4.967,4.967,0,0,1-565.646-736.03Zm-2.674,4.907a5.884,5.884,0,0,0,.38,2.316,2.438,2.438,0,0,0,2.352,1.636,2.334,2.334,0,0,0,2.236-1.592,6.071,6.071,0,0,0-.04-4.74,2.281,2.281,0,0,0-2.283-1.5,2.362,2.362,0,0,0-2.248,1.565A5.719,5.719,0,0,0-568.32-731.122Z" transform="translate(16.966 1.538)" fill="#262725"/>
    <path id="Path_159" data-name="Path 159" d="M-502.281-727.682c-.253.5-.665.666-.948.964a1.215,1.215,0,0,1-1.851.093c-.616-.585-1.042-.42-1.632-.013a2.817,2.817,0,0,1-2.265.351,2.6,2.6,0,0,1-2.261-1.979,2.793,2.793,0,0,1,1.188-3.045,5.972,5.972,0,0,1,2.883-.9c.412-.049,1.085.472,1.221-.394a1.667,1.667,0,0,0-1.235-1.9,2.317,2.317,0,0,0-2.065.56c-.246.227-.389.746-.857.5-.342-.177-.185-.586-.194-.894-.045-1.341-.038-1.337,1.338-1.535a9.192,9.192,0,0,1,2.905-.008c1.733.3,2.431,1.056,2.464,2.8.021,1.158-.071,2.317-.081,3.476C-503.684-728.139-503.67-728.139-502.281-727.682Zm-3.646-1.837c0-.37-.01-.739,0-1.109.016-.45-.163-.659-.634-.7a2.67,2.67,0,0,0-1.6.32,1.805,1.805,0,0,0-.724,2.289,1.911,1.911,0,0,0,2.326.994c1.121-.229.582-1.045.629-1.658A1.1,1.1,0,0,0-505.927-729.519Z" transform="translate(26.648 1.546)" fill="#262725"/>
    <path id="Path_160" data-name="Path 160" d="M-584.026-727.759c-1.439,1.728-1.533,1.776-3.309.77-.437-.248-.6.032-.83.173a3.388,3.388,0,0,1-2.505.548A2.706,2.706,0,0,1-593-728.186a2.856,2.856,0,0,1,1.223-3.161,6.105,6.105,0,0,1,2.9-.86c.4-.041,1.13.464,1.144-.458.012-.757-.13-1.522-1.009-1.781a2.3,2.3,0,0,0-2.217.456c-.3.243-.472.836-.982.556-.367-.2-.131-.678-.19-1.028-.158-.949.272-1.3,1.2-1.4a10.262,10.262,0,0,1,3.451.036,2.317,2.317,0,0,1,2.057,2.543c.012,1.3-.046,2.6-.043,3.9C-585.468-728.062-585.452-728.062-584.026-727.759Zm-3.646-1.766h-.024c0-.367,0-.736,0-1.1.006-.431-.148-.673-.629-.7a2.406,2.406,0,0,0-1.922.567,1.756,1.756,0,0,0-.359,2.152,1.894,1.894,0,0,0,2.244.9c1.084-.22.56-1.074.688-1.671A.612.612,0,0,0-587.672-729.525Z" transform="translate(13.349 1.545)" fill="#262725"/>
    <path id="Path_161" data-name="Path 161" d="M-479.976-727.726c-.272.591-.789.773-1.143,1.128a1.16,1.16,0,0,1-1.742-.052c-.575-.543-.965-.407-1.516-.02a2.907,2.907,0,0,1-2.4.373,2.558,2.558,0,0,1-2.168-1.9,2.772,2.772,0,0,1,1.017-2.989,5.688,5.688,0,0,1,3.124-1.017c.379-.035.967.426,1.125-.351a1.751,1.751,0,0,0-1.05-1.9,2.328,2.328,0,0,0-2.311.592c-.223.213-.381.613-.771.473-.484-.172-.256-.636-.269-.969-.049-1.289-.033-1.287,1.228-1.485a9.378,9.378,0,0,1,3.182-.013,2.452,2.452,0,0,1,2.335,2.759c0,1.207-.086,2.414-.093,3.62C-481.433-728.082-481.413-728.082-479.976-727.726Zm-3.651-1.98c-.176-.4.344-1.182-.284-1.507a2.133,2.133,0,0,0-2.1.284.988.988,0,0,0-.109.085,1.909,1.909,0,0,0-.432,2.259,1.957,1.957,0,0,0,2.266.865c1.006-.207.546-.992.655-1.554A3.127,3.127,0,0,0-483.627-729.706Z" transform="translate(30.271 1.545)" fill="#262725"/>
    <path id="Path_162" data-name="Path 162" d="M-535.676-733.394c-.389-2.231-.271-2.418,1.851-2.562a8.819,8.819,0,0,1,2.632.13,2.352,2.352,0,0,1,2.064,2.545c.012,1.16-.033,2.32-.038,3.481-.008,1.6,0,1.6,1.421,2.153a5.748,5.748,0,0,1-1.329,1.188.929.929,0,0,1-1.279-.031c-.753-.821-1.375-.4-2.125-.031a3.131,3.131,0,0,1-4.154-1.365,2.989,2.989,0,0,1,1.85-3.832,5.167,5.167,0,0,1,2.574-.451c.77.081.853-.293.749-.9-.256-1.483-1.779-1.975-3.111-1.013C-534.923-733.831-535.073-733.244-535.676-733.394Zm4.31,3.859c0-.184,0-.369,0-.552-.024-1.172-.362-1.449-1.517-1.2a2.712,2.712,0,0,0-.885.359,1.922,1.922,0,0,0-.606,2.227,1.987,1.987,0,0,0,2.336.979c1.017-.2.569-.977.67-1.54A1.553,1.553,0,0,0-531.366-729.535Z" transform="translate(22.499 1.545)" fill="#262725"/>
    <path id="Path_163" data-name="Path 163" d="M-668.306-726.636a2.289,2.289,0,0,1,2.59,1.958,6.93,6.93,0,0,1,.312,3.405,3.672,3.672,0,0,1-2.716,2.968,3.617,3.617,0,0,1-3.7-1.63,4.813,4.813,0,0,1-.051-4.255A3.988,3.988,0,0,1-668.306-726.636Z" transform="translate(0.465 3.066)" fill="#e30c18"/>
    <path id="Path_164" data-name="Path 164" d="M-492.913-732.572c1.618-1.794,1.623-1.81.758-3.092h3.725a16.912,16.912,0,0,0-3.09,3.33c-.5.586-.609,1.038-.056,1.653,1.045,1.16,1.64,2.7,3.027,3.582a.344.344,0,0,1,.134.477.31.31,0,0,1-.357.14,24.764,24.764,0,0,0-3.7,0c.964-1.594-.508-2.225-1.048-3.41-.469,1.133-2.11,1.659-.93,3.285h-3.352a22.909,22.909,0,0,0,3.082-3.537.831.831,0,0,0,.02-1.3c-1.068-1.2-1.724-2.754-3.106-3.7a.371.371,0,0,1-.173-.473c.093-.222.309-.2.473-.177a23.74,23.74,0,0,0,3.787-.016C-494.85-734.257-493.541-733.565-492.913-732.572Z" transform="translate(28.811 1.574)" fill="#2c2c2a"/>
    <path id="Path_165" data-name="Path 165" d="M-538.207-741.645a11.994,11.994,0,0,1,.092,2.865c0,3.718.008,7.436-.007,11.154,0,.77.031,1.483,1.147,1.732l-.31.249h-3.956c.959-.653.775-1.574.765-2.425-.035-3.112.1-6.226-.1-9.336-.052-.824.036-1.676-.97-2.114-.356-.153-.316-.56.164-.67A9.543,9.543,0,0,0-538.207-741.645Z" transform="translate(21.694 0.626)" fill="#2c2c2a"/>
    <path id="Path_166" data-name="Path 166" d="M-575.491-728.448c-.053,1.517-.306,1.9-1.574,2.079a10.039,10.039,0,0,1-3.183.073,4.929,4.929,0,0,1-4.1-4.621,4.926,4.926,0,0,1,3.61-4.878,7.566,7.566,0,0,1,3.309-.044c1.6.278,1.95.749,1.676,2.346-.029.177-.016.381-.266.406a.483.483,0,0,1-.48-.208,7.589,7.589,0,0,0-.53-.815,2.539,2.539,0,0,0-3.9.028,4.357,4.357,0,0,0,1.07,6.232,3.221,3.221,0,0,0,3.32-.01C-576.2-728.056-575.984-728.51-575.491-728.448Z" transform="translate(14.771 1.543)" fill="#262725"/>
    <path id="Path_167" data-name="Path 167" d="M-571.146-726.529a39.888,39.888,0,0,0-4.148.123c1.472-2.412.663-4.768.516-7.082a.984.984,0,0,0-.258-.487c-.708-.88-.728-.944.339-1.208.789-.194,1.59-1.136,2.239-.67.533.382.15,1.485.183,2.265.064,1.577.055,3.154.066,4.732C-572.2-727.528-572.2-727.528-571.146-726.529Z" transform="translate(16.206 1.547)" fill="#2c2c2a"/>
    <path id="Path_168" data-name="Path 168" d="M-498.253-726.552H-502c.934-.73.707-1.7.716-2.586s.045-1.768-.022-2.646c-.084-1.086-.094-2.236-1.481-2.888,1.135-.46,2.054-.839,2.979-1.207.632-.251.678.141.712.625.145,2.042.05,4.084.069,6.127C-499.02-728.212-499.154-727.267-498.253-726.552Z" transform="translate(28.035 1.551)" fill="#2c2c2a"/>
    <path id="Path_169" data-name="Path 169" d="M-667-732.1a1.939,1.939,0,0,1,1.981,2.024,2.161,2.161,0,0,1-2.411,1.952,1.934,1.934,0,0,1-2.065-1.814C-669.537-731.251-668.591-732.07-667-732.1Z" transform="translate(0.927 2.178)" fill="#fdcd08"/>
    <path id="Path_170" data-name="Path 170" d="M-544.958-739.767c-.141,1.569-1.094,2.819-1.668,4.217-.071.173-.309.151-.5.115-.322-.063-.33-.308-.265-.529.183-.616.4-1.224.6-1.835a1.9,1.9,0,0,0-.576-2.344c-.649-.524-.437-1.168.364-1.365A1.6,1.6,0,0,1-544.958-739.767Z" transform="translate(20.725 0.638)" fill="#2c2c2a"/>
    <path id="Path_171" data-name="Path 171" d="M-542.241-739.98c.006,1.813-1.066,2.982-1.542,4.373-.077.222-.379.244-.614.161-.309-.109-.234-.367-.17-.579.162-.531.381-1.045.517-1.581.234-.915.434-1.846-.531-2.515a.687.687,0,0,1-.317-.83c.122-.453.465-.526.844-.581C-542.806-741.715-542.229-741.145-542.241-739.98Z" transform="translate(21.182 0.639)" fill="#2c2c2a"/>
    <path id="Path_172" data-name="Path 172" d="M-480.2-741.566c.879.047,1.423.387,1.532,1.306a3.645,3.645,0,0,1-.266,1.89c-.357.848-.792,1.662-1.152,2.509-.157.37-.385.532-.737.4s-.215-.467-.143-.713c.2-.661.441-1.308.635-1.969a1.637,1.637,0,0,0-.528-1.862c-.336-.271-.667-.483-.462-1.008C-481.091-741.586-480.581-741.473-480.2-741.566Z" transform="translate(31.516 0.638)" fill="#2c2c2a"/>
    <path id="Path_173" data-name="Path 173" d="M-475.869-739.759c.022,1.568-1.061,2.737-1.517,4.134-.072.22-.371.255-.613.169-.294-.106-.27-.337-.2-.569.157-.485.348-.959.481-1.449.277-1,.5-1.969-.579-2.743-.543-.389-.348-1.009.291-1.25C-476.82-741.91-475.879-741.157-475.869-739.759Z" transform="translate(31.967 0.633)" fill="#2c2c2a"/>
    <path id="Path_174" data-name="Path 174" d="M-567.593-736.58c1.053-1.186,2.042-2.34,3.081-3.447a.978.978,0,0,1,1.576-.056c.469.559.1,1.039-.391,1.394-.9.649-1.83,1.259-2.719,1.924A1.7,1.7,0,0,1-567.593-736.58Z" transform="translate(17.498 0.819)" fill="#262725"/>
    <path id="Path_175" data-name="Path 175" d="M-573.608-736.915a1.131,1.131,0,0,1-1.232-1.178,1.183,1.183,0,0,1,1.284-1.146,1.212,1.212,0,0,1,1.254,1.189A1.211,1.211,0,0,1-573.608-736.915Z" transform="translate(16.319 1.017)" fill="#262725"/>
    <path id="Path_176" data-name="Path 176" d="M-499.165-738.07a1.161,1.161,0,0,1-1.263,1.158,1.155,1.155,0,0,1-1.265-1.154,1.16,1.16,0,0,1,1.254-1.171A1.21,1.21,0,0,1-499.165-738.07Z" transform="translate(28.213 1.017)" fill="#262725"/>
  </g>
</svg>
