<svg id="gear" xmlns="http://www.w3.org/2000/svg" width="80.99" height="89.307" viewBox="0 0 80.99 89.307">
  <path id="Path_58" data-name="Path 58" d="M100.751,38.733h-5.2a1.429,1.429,0,0,1-1.339-.935c-.3-.8-.623-1.589-.973-2.347a1.433,1.433,0,0,1,.287-1.608L97.2,30.167a4.049,4.049,0,0,0,0-5.728l-8.525-8.524a4.048,4.048,0,0,0-5.727,0c-.2.2-3.679,3.722-3.909,3.863a28.077,28.077,0,0,0-3.6-6.6A37.666,37.666,0,0,0,57.093.135a2.482,2.482,0,0,0-3.259,2.718,18.822,18.822,0,0,1-.107,6.355c-.686,3.554-2.141,5.125-3.425,8.237-1.629,3.947-3.026,10.347-1.6,15.392A13.314,13.314,0,0,0,49.732,35.4,19.8,19.8,0,1,0,82.2,40.319a1.31,1.31,0,0,0-2.366,1.125,17.027,17.027,0,0,1,1.655,7.368,17.187,17.187,0,1,1-34.374,0,17.034,17.034,0,0,1,4.094-11.133,22.271,22.271,0,0,0,7.644,5.953,37.9,37.9,0,0,0,7.226,2.7A53.049,53.049,0,0,1,61.36,61.123a1.31,1.31,0,0,0,2.352,1.154,55.643,55.643,0,0,0,5.04-16.057c8.487-5.384,10.816-11.874,11.445-15.3a20.121,20.121,0,0,0-.36-8.617,4.036,4.036,0,0,0,1.288-.863L84.8,17.767a1.428,1.428,0,0,1,2.021,0l8.526,8.525a1.43,1.43,0,0,1,0,2.023l-3.676,3.676a4.063,4.063,0,0,0-.813,4.558c.322.7.623,1.423.894,2.155a4.057,4.057,0,0,0,3.8,2.649h5.2a1.432,1.432,0,0,1,1.43,1.43V54.841a1.432,1.432,0,0,1-1.43,1.43h-5.2a4.055,4.055,0,0,0-3.8,2.645c-.272.736-.572,1.461-.895,2.158a4.059,4.059,0,0,0,.813,4.557l3.676,3.676a1.43,1.43,0,0,1,0,2.023l-8.527,8.527a1.428,1.428,0,0,1-2.021,0l-3.677-3.675a4.063,4.063,0,0,0-4.56-.814c-.7.324-1.424.624-2.155.892a4.062,4.062,0,0,0-2.645,3.8v5.2a1.432,1.432,0,0,1-1.43,1.43H58.278a1.432,1.432,0,0,1-1.43-1.43v-5.2a4.062,4.062,0,0,0-2.647-3.8c-.73-.268-1.454-.568-2.156-.892a4.06,4.06,0,0,0-4.557.814l-3.679,3.677a1.428,1.428,0,0,1-2.02,0l-8.527-8.527a1.43,1.43,0,0,1,0-2.022l3.675-3.675a4.06,4.06,0,0,0,.813-4.56c-.322-.695-.622-1.42-.893-2.154a4.056,4.056,0,0,0-3.8-2.647h-5.2a1.432,1.432,0,0,1-1.43-1.43V42.783a1.432,1.432,0,0,1,1.43-1.43h5.2a4.056,4.056,0,0,0,3.8-2.646c.272-.735.573-1.461.9-2.159a4.063,4.063,0,0,0-.813-4.558l-3.676-3.676a1.43,1.43,0,0,1,0-2.023l8.527-8.525a1.418,1.418,0,0,1,1.01-.418c.746,0,1.135.544,1.6,1.011a1.31,1.31,0,0,0,1.852-1.853A4.907,4.907,0,0,0,42.8,14.728a4.019,4.019,0,0,0-2.863,1.186l-8.526,8.525a4.049,4.049,0,0,0,0,5.728l3.676,3.676a1.433,1.433,0,0,1,.287,1.607c-.351.759-.678,1.549-.975,2.351a1.428,1.428,0,0,1-1.338.931h-5.2a4.055,4.055,0,0,0-4.05,4.05V54.84a4.055,4.055,0,0,0,4.05,4.05h5.2a1.428,1.428,0,0,1,1.338.932c.3.8.623,1.592.974,2.348a1.431,1.431,0,0,1-.287,1.608l-3.676,3.676a4.049,4.049,0,0,0,0,5.728l8.525,8.526a4.047,4.047,0,0,0,5.727,0l3.679-3.678a1.431,1.431,0,0,1,1.6-.287c.764.354,1.555.682,2.35.973a1.432,1.432,0,0,1,.932,1.34v5.2a4.055,4.055,0,0,0,4.05,4.05H70.335a4.055,4.055,0,0,0,4.05-4.05v-5.2a1.432,1.432,0,0,1,.929-1.339c.8-.292,1.589-.62,2.35-.973a1.433,1.433,0,0,1,1.609.287l3.677,3.675a4.047,4.047,0,0,0,5.727,0L97.2,73.183a4.049,4.049,0,0,0,0-5.729l-3.677-3.677a1.431,1.431,0,0,1-.287-1.605c.351-.758.679-1.549.975-2.352a1.428,1.428,0,0,1,1.338-.93h5.2a4.055,4.055,0,0,0,4.05-4.05V42.783a4.054,4.054,0,0,0-4.05-4.05ZM77.621,30.45c-1.055,5.742-5.129,9.841-8.457,12.313a56.177,56.177,0,0,0-.616-13.829,11.439,11.439,0,0,0,2.087-2.507,11.731,11.731,0,0,0,1.7-6.076,1.31,1.31,0,0,0-1.3-1.315h-.005a1.31,1.31,0,0,0-1.31,1.3A9.108,9.108,0,0,1,68.4,25.056a8.768,8.768,0,0,1-.5.732A54.117,54.117,0,0,0,63.419,13.7a1.31,1.31,0,1,0-2.332,1.194,51.169,51.169,0,0,1,5.122,15.989c-.418-.4-.846-.8-1.287-1.176a29.663,29.663,0,0,0-6.47-4.226,1.31,1.31,0,0,0-1.135,2.361,26.9,26.9,0,0,1,9.338,7.409,50.551,50.551,0,0,1-.217,8.466c-3.7-1.01-13.139-4.261-15.213-11.593-.84-2.968-.7-8.349,1.5-13.68,1.341-3.249,2.819-4.815,3.576-8.74a21.379,21.379,0,0,0,.157-7.017A34.976,34.976,0,0,1,73.319,14.718c3.426,4.708,5.315,10.214,4.3,15.732Z" transform="translate(-23.811 0)" fill="#fff"/>
</svg>
