<svg xmlns="http://www.w3.org/2000/svg" width="91.094" height="24.578" viewBox="0 0 91.094 24.578">
  <g id="hama" transform="translate(-72.388 -440.835)">
    <g id="g3444" transform="translate(72.388 440.835)">
      <path id="path3407" d="M700.2,565.34v-.757h.514c.27,0,.541,0,.541.351s-.27.352-.541.406Zm0,.3h.433l.7,1.055h.433l-.7-1.055a.7.7,0,0,0,.622-.7c0-.514-.27-.7-.919-.7h-.919v2.461h.352Zm-1.271-.162a1.681,1.681,0,0,1,1.785-1.758,1.612,1.612,0,0,1,1.677,1.758,1.694,1.694,0,0,1-1.677,1.785A1.766,1.766,0,0,1,698.928,565.475Zm1.785,2.136a2.15,2.15,0,0,0,0-4.3,2.15,2.15,0,1,0,0,4.3" transform="translate(-611.917 -545.98)" fill="#221f1f"/>
      <path id="path3409" d="M144.8,454.414s-.757,3.65-3.461,3.731c-1.055-.081-1.757-.622-1.757-1.622,0-1.839,4.516-2.109,4.948-2.325h.27Zm-49.671,3.731a1.553,1.553,0,0,1-1.7-1.541c0-1.839,4.516-2.136,4.867-2.325h.3v.135C98.64,454.414,97.8,458.145,95.125,458.145Zm64.407,2.46H149.446c.135-.487.514-2.244.919-4.164.135-.838.351-1.622.487-2.379.352-1.7.649-3.164.7-3.6.216-.919,1.081-5.083-7.328-5.219-8.734-.135-8.95,5.354-8.652,5.57h5.759c1-1.7,1.568-1.974,2.7-1.974A1.519,1.519,0,0,1,145.8,450.2c-.135,1.325-3.461,1.325-6.057,1.676-1.974.27-4.029.622-5.3,2.19a6.375,6.375,0,0,0-.919,2.244c0,.081,0,.081-.054.135-.649,3.461,1.893,4.083,1.109,4.083h-2.163s.676-3.434,1.244-6.462c.433-1.92.784-3.6.865-4.245.27-1.541-.784-4.921-5.435-4.921-4.3,0-5.57,3.109-5.705,2.893a4.84,4.84,0,0,0-4.569-2.893c-3.813,0-5.435,3.109-5.381,2.677,0-.622-.135-1.974-.135-1.893h-5.84s-.919,4.353-1.839,8.382c-.622,3.38-1.325,6.462-1.325,6.462l-1,.081c.081-.081.487-2.028.919-4.218.216-.784.351-1.568.487-2.325.352-1.7.649-3.164.7-3.542.216-.892,1.055-5.056-7.382-5.137-8.734-.216-8.9,5.3-8.6,5.516h5.759c1-1.7,1.568-1.974,2.677-2.055a1.536,1.536,0,0,1,1.785,1.406c-.162,1.271-3.38,1.352-6.084,1.7-1.974.189-4,.541-5.191,2.109a5.8,5.8,0,0,0-1,2.325c-.7,3.6,1.92,4.137,1.055,4.218a9.9,9.9,0,0,0-2.19,0c.081-.081.784-3.515,1.433-6.543.189-1.271.487-2.461.622-3.245.568-2.677-1.055-5.273-4.867-5.219a6.636,6.636,0,0,0-5.273,1.893c-.081.081,2.244-10.194,2.244-10.194H73.981s-2.055,9.707-3.6,16.764c-.838,4.083-1.487,7.246-1.541,7.246.135.081,6.327,0,6.273,0,.054,0,1.109-4.651,1.676-7.246.216-.865.352-1.406.433-1.622a3.438,3.438,0,0,1,3.109-2.406c1.974-.054,1.46,1.7,1.406,2.109,0,.081-.162.865-.352,1.92-.514,2.731-1.406,7.328-1.406,7.328h9.707a13.574,13.574,0,0,0,3.109.487,7.241,7.241,0,0,0,4.434-1.487s.135.865.135,1c0,.054,13.114,0,13.033,0,.081.054,1.217-4.6,1.785-7.328.189-.919.352-1.622.352-1.839a2.956,2.956,0,0,1,2.812-2.325c1.839-.081,1.622,1.622,1.541,2.244a18.294,18.294,0,0,1-.352,1.92c-.568,2.731-1.487,7.328-1.487,7.382,0-.054,6.273-.054,6.273,0,.081,0,1.136-4.651,1.7-7.382a9.591,9.591,0,0,0,.405-1.839,2.76,2.76,0,0,1,2.623-2.46c1.839-.081,1.839,1.757,1.676,2.46,0,.135-.135.838-.324,1.839-.514,2.677-1.487,7.328-1.487,7.328h9.869a17.447,17.447,0,0,0,3.164.487,7.5,7.5,0,0,0,4.38-1.487,3.866,3.866,0,0,1,.189,1l16.061-.081s.352.081.352-.352a.327.327,0,0,0-.406-.352" transform="translate(-68.843 -437.298)" fill="#ec1a39"/>
    </g>
  </g>
</svg>
