<svg id="network" xmlns="http://www.w3.org/2000/svg" width="82.105" height="82.105" viewBox="0 0 82.105 82.105">
  <g id="Group_45" data-name="Group 45" transform="translate(24.632)">
    <g id="Group_44" data-name="Group 44">
      <path id="Path_36" data-name="Path 36" d="M166.861,16.65a9.579,9.579,0,1,0-12.88,0A12.332,12.332,0,0,0,144,28.737v5.474a1.368,1.368,0,0,0,1.368,1.368h30.105a1.368,1.368,0,0,0,1.368-1.368V28.737A12.332,12.332,0,0,0,166.861,16.65ZM153.579,9.579a6.842,6.842,0,1,1,6.842,6.842A6.85,6.85,0,0,1,153.579,9.579Zm20.526,23.263H146.737V28.737a9.59,9.59,0,0,1,9.579-9.579h8.211a9.59,9.59,0,0,1,9.579,9.579Z" transform="translate(-144)" fill="#fff"/>
    </g>
  </g>
  <g id="Group_47" data-name="Group 47" transform="translate(0 46.526)">
    <g id="Group_46" data-name="Group 46">
      <path id="Path_37" data-name="Path 37" d="M22.861,288.65a9.579,9.579,0,1,0-12.88,0A12.332,12.332,0,0,0,0,300.737v5.474a1.368,1.368,0,0,0,1.368,1.368H31.474a1.368,1.368,0,0,0,1.368-1.368v-5.474A12.332,12.332,0,0,0,22.861,288.65ZM9.579,281.579a6.842,6.842,0,1,1,6.842,6.842A6.85,6.85,0,0,1,9.579,281.579Zm20.526,23.263H2.737v-4.105a9.59,9.59,0,0,1,9.579-9.579h8.211a9.59,9.59,0,0,1,9.579,9.579Z" transform="translate(0 -272)" fill="#fff"/>
    </g>
  </g>
  <g id="Group_49" data-name="Group 49" transform="translate(49.263 46.526)">
    <g id="Group_48" data-name="Group 48">
      <path id="Path_38" data-name="Path 38" d="M310.861,288.65a9.579,9.579,0,1,0-12.88,0A12.332,12.332,0,0,0,288,300.737v5.474a1.368,1.368,0,0,0,1.368,1.368h30.105a1.368,1.368,0,0,0,1.368-1.368v-5.474A12.332,12.332,0,0,0,310.861,288.65Zm-13.282-7.071a6.842,6.842,0,1,1,6.842,6.842A6.85,6.85,0,0,1,297.579,281.579Zm20.526,23.263H290.737v-4.105a9.59,9.59,0,0,1,9.579-9.579h8.211a9.59,9.59,0,0,1,9.579,9.579Z" transform="translate(-288 -272)" fill="#fff"/>
    </g>
  </g>
  <g id="Group_51" data-name="Group 51" transform="translate(5.502 43.746)">
    <g id="Group_50" data-name="Group 50">
      <path id="Path_39" data-name="Path 39" d="M34.9,255.744l-2.734.107c.037.943.112,1.9.224,2.837l2.718-.326C35.006,257.5,34.936,256.614,34.9,255.744Z" transform="translate(-32.168 -255.744)" fill="#fff"/>
    </g>
  </g>
  <g id="Group_53" data-name="Group 53" transform="translate(5.502 38.175)">
    <g id="Group_52" data-name="Group 52">
      <path id="Path_40" data-name="Path 40" d="M32.391,223.176c-.111.933-.187,1.887-.223,2.835l2.734.107c.034-.876.1-1.756.207-2.619Z" transform="translate(-32.168 -223.176)" fill="#fff"/>
    </g>
  </g>
  <g id="Group_55" data-name="Group 55" transform="translate(17.291 14.119)">
    <g id="Group_54" data-name="Group 54">
      <path id="Path_41" data-name="Path 41" d="M103.282,82.544c-.749.571-1.486,1.181-2.194,1.816l1.83,2.036c.651-.586,1.331-1.149,2.023-1.675Z" transform="translate(-101.088 -82.544)" fill="#fff"/>
    </g>
  </g>
  <g id="Group_57" data-name="Group 57" transform="translate(7.741 27.273)">
    <g id="Group_56" data-name="Group 56">
      <path id="Path_42" data-name="Path 42" d="M46.364,159.44c-.4.855-.775,1.737-1.108,2.625l2.562.962c.308-.818.651-1.631,1.022-2.418Z" transform="translate(-45.256 -159.44)" fill="#fff"/>
    </g>
  </g>
  <g id="Group_59" data-name="Group 59" transform="translate(6.173 32.6)">
    <g id="Group_58" data-name="Group 58">
      <path id="Path_43" data-name="Path 43" d="M36.761,190.584c-.26.9-.486,1.836-.673,2.764l2.683.541c.172-.855.38-1.715.621-2.551Z" transform="translate(-36.088 -190.584)" fill="#fff"/>
    </g>
  </g>
  <g id="Group_61" data-name="Group 61" transform="translate(13.378 17.922)">
    <g id="Group_60" data-name="Group 60">
      <path id="Path_44" data-name="Path 44" d="M80.084,104.776c-.655.69-1.285,1.408-1.876,2.137l2.128,1.721c.545-.673,1.128-1.338,1.732-1.975Z" transform="translate(-78.208 -104.776)" fill="#fff"/>
    </g>
  </g>
  <g id="Group_63" data-name="Group 63" transform="translate(21.811 11.045)">
    <g id="Group_62" data-name="Group 62">
      <path id="Path_45" data-name="Path 45" d="M129.967,64.568c-.828.442-1.653.928-2.455,1.444l1.483,2.3c.739-.478,1.5-.925,2.261-1.331Z" transform="translate(-127.512 -64.568)" fill="#fff"/>
    </g>
  </g>
  <g id="Group_65" data-name="Group 65" transform="translate(10.165 22.34)">
    <g id="Group_64" data-name="Group 64">
      <path id="Path_46" data-name="Path 46" d="M60.937,130.6c-.535.781-1.044,1.591-1.513,2.411l2.374,1.36c.432-.755.9-1.5,1.4-2.224Z" transform="translate(-59.424 -130.6)" fill="#fff"/>
    </g>
  </g>
  <g id="Group_67" data-name="Group 67" transform="translate(34.029 74.623)">
    <g id="Group_66" data-name="Group 66">
      <path id="Path_47" data-name="Path 47" d="M199.477,436.256l-.541,2.683c.921.186,1.868.335,2.813.446l.317-2.718C201.2,436.565,200.325,436.427,199.477,436.256Z" transform="translate(-198.936 -436.256)" fill="#fff"/>
    </g>
  </g>
  <g id="Group_69" data-name="Group 69" transform="translate(45.028 74.606)">
    <g id="Group_68" data-name="Group 68">
      <path id="Path_48" data-name="Path 48" d="M265.835,436.16c-.85.172-1.721.313-2.595.42l.33,2.718c.944-.115,1.888-.268,2.808-.454Z" transform="translate(-263.24 -436.16)" fill="#fff"/>
    </g>
  </g>
  <g id="Group_71" data-name="Group 71" transform="translate(39.676 75.236)">
    <g id="Group_70" data-name="Group 70">
      <path id="Path_49" data-name="Path 49" d="M234.687,439.84c-.874.034-1.758.038-2.627,0l-.108,2.734c.456.019.915.027,1.381.027.49,0,.978-.012,1.464-.031Z" transform="translate(-231.952 -439.84)" fill="#fff"/>
    </g>
  </g>
  <g id="Group_73" data-name="Group 73" transform="translate(62.991 15.946)">
    <g id="Group_72" data-name="Group 72">
      <path id="Path_50" data-name="Path 50" d="M370.084,93.224l-1.828,2.036c.651.586,1.284,1.2,1.882,1.831l1.987-1.882C371.476,94.525,370.79,93.858,370.084,93.224Z" transform="translate(-368.256 -93.224)" fill="#fff"/>
    </g>
  </g>
  <g id="Group_75" data-name="Group 75" transform="translate(66.605 20.068)">
    <g id="Group_74" data-name="Group 74">
      <path id="Path_51" data-name="Path 51" d="M391.512,117.32l-2.128,1.721c.546.675,1.074,1.385,1.57,2.107l2.257-1.548C392.674,118.82,392.1,118.052,391.512,117.32Z" transform="translate(-389.384 -117.32)" fill="#fff"/>
    </g>
  </g>
  <g id="Group_77" data-name="Group 77" transform="translate(73.869 41.014)">
    <g id="Group_76" data-name="Group 76">
      <path id="Path_52" data-name="Path 52" d="M434.582,239.776l-2.734.107c.018.431.026.866.026,1.3s-.008.887-.026,1.329l2.734.107q.029-.714.029-1.438C434.611,240.711,434.6,240.241,434.582,239.776Z" transform="translate(-431.848 -239.776)" fill="#fff"/>
    </g>
  </g>
  <g id="Group_79" data-name="Group 79" transform="translate(69.571 24.758)">
    <g id="Group_78" data-name="Group 78">
      <path id="Path_53" data-name="Path 53" d="M409.1,144.736,406.72,146.1c.434.757.842,1.541,1.214,2.329l2.475-1.169C410.007,146.4,409.565,145.556,409.1,144.736Z" transform="translate(-406.72 -144.736)" fill="#fff"/>
    </g>
  </g>
  <g id="Group_81" data-name="Group 81" transform="translate(71.805 29.903)">
    <g id="Group_80" data-name="Group 80">
      <path id="Path_54" data-name="Path 54" d="M422.346,174.816l-2.562.963c.307.816.583,1.654.824,2.492l2.631-.754C422.979,176.609,422.678,175.7,422.346,174.816Z" transform="translate(-419.784 -174.816)" fill="#fff"/>
    </g>
  </g>
  <g id="Group_83" data-name="Group 83" transform="translate(73.249 35.37)">
    <g id="Group_82" data-name="Group 82">
      <path id="Path_55" data-name="Path 55" d="M430.906,206.776l-2.682.539c.172.857.312,1.73.413,2.595l2.718-.323C431.244,208.651,431.094,207.705,430.906,206.776Z" transform="translate(-428.224 -206.776)" fill="#fff"/>
    </g>
  </g>
  <g id="Group_85" data-name="Group 85" transform="translate(58.82 12.494)">
    <g id="Group_84" data-name="Group 84">
      <path id="Path_56" data-name="Path 56" d="M345.354,73.04l-1.482,2.3c.731.471,1.453.978,2.15,1.511l1.661-2.177C346.929,74.1,346.146,73.55,345.354,73.04Z" transform="translate(-343.872 -73.04)" fill="#fff"/>
    </g>
  </g>
  <g id="Group_87" data-name="Group 87" transform="translate(54.194 9.806)">
    <g id="Group_86" data-name="Group 86">
      <path id="Path_57" data-name="Path 57" d="M317.92,57.328l-1.1,2.507c.8.349,1.591.735,2.362,1.148l1.294-2.411C319.647,58.123,318.785,57.7,317.92,57.328Z" transform="translate(-316.824 -57.328)" fill="#fff"/>
    </g>
  </g>
</svg>
