<svg id="tupinamba" xmlns="http://www.w3.org/2000/svg" xmlns:xlink="http://www.w3.org/1999/xlink" width="123.241" height="39.518" viewBox="0 0 123.241 39.518">
  <defs>
    <clipPath id="clip-path">
      <rect id="Rectangle_33" data-name="Rectangle 33" width="123.241" height="39.518" fill="none"/>
    </clipPath>
  </defs>
  <g id="Group_118" data-name="Group 118" clip-path="url(#clip-path)">
    <path id="Path_180" data-name="Path 180" d="M295.667,57.971h6.668l2.92,4.369,2.839-4.362h6.771V79.955h-4.883V64.082l-.283-.045a10.254,10.254,0,0,0-1.933,5.359c-.045,3.076-.043,6.153-.061,9.23,0,.419,0,.838,0,1.325h-4.928c0-.442,0-.894,0-1.345-.035-3.119-.027-6.238-.126-9.355a9.227,9.227,0,0,0-2.1-5.4V79.959h-4.882Z" transform="translate(-219.457 -43.029)" fill="#030303"/>
    <path id="Path_181" data-name="Path 181" d="M142.456,12.633a9.459,9.459,0,0,1-1.319-.368A60.251,60.251,0,0,0,130.82,8.719c-2.56-.617-5.1-1.345-7.675-1.871-2.418-.493-4.874-.811-7.32-1.159-2.363-.336-4.734-.613-7.1-.913-.254-.032-.51-.051-.765-.073a249.883,249.883,0,0,0-27.48-.5c-3.707.095-7.4.576-11.1.906-1.956.174-3.911.368-5.859.613-1.435.181-2.868.418-4.285.707C56.4,7,53.56,7.583,50.749,8.26a65.528,65.528,0,0,0-10.434,3.358c-.666.285-1.33.574-2.01.82a4.722,4.722,0,0,1-.938.134c-.045-.776.417-.969.794-1.218a44.885,44.885,0,0,1,10.6-5.176c2.5-.829,4.992-1.689,7.537-2.345,2.716-.7,5.485-1.2,8.241-1.738,1.63-.317,3.277-.553,4.922-.794,1.729-.253,3.458-.518,5.2-.688A196.19,196.19,0,0,1,96.482.058a88.4,88.4,0,0,1,11.355.956c2.152.309,4.322.5,6.468.843,2.394.386,4.8.766,7.144,1.366a89.675,89.675,0,0,1,11.308,3.492,44.865,44.865,0,0,1,8.922,4.583c.414.287.906.49.778,1.333" transform="translate(-27.733 0)" fill="#e9962c"/>
    <path id="Path_182" data-name="Path 182" d="M376.657,70.813V45.648h5.021v4.513a4.489,4.489,0,0,1,3.377-1.182,4.244,4.244,0,0,1,4.167,3.928A40.976,40.976,0,0,1,389.4,57c-.02,3.2-.086,6.405-.17,9.607a5.631,5.631,0,0,1-.334,1.621A4.257,4.257,0,0,1,382.44,70.5c-.178-.111-.336-.253-.6-.456-.068.279-.119.49-.186.763Zm7.429-10.849h0q0-2.046,0-4.093c0-.639.036-1.282-.019-1.917a1.056,1.056,0,0,0-1.192-1.055c-.705.005-1.05.337-1.129,1.1a5.049,5.049,0,0,0-.013.511q0,5.5,0,11c0,.255.009.512.033.766a1.034,1.034,0,0,0,1.031.951,1.14,1.14,0,0,0,1.241-.871,4.14,4.14,0,0,0,.049-.89q.006-2.75,0-5.5" transform="translate(-279.571 -33.882)" fill="#030303"/>
    <path id="Path_183" data-name="Path 183" d="M102.192,59.013h4.953l.138.454a15.116,15.116,0,0,1,2.913-.791,3.932,3.932,0,0,1,4.266,3.274,12.58,12.58,0,0,1,.278,2.539q.046,5.128,0,10.257a12.839,12.839,0,0,1-.3,2.666A4.119,4.119,0,0,1,108,80.125c-.21-.128-.425-.249-.742-.435v3.342c-.9.01-1.735.022-2.57.027-.807,0-1.614,0-2.5,0Zm5.042,10.623h.007c0,1.962-.026,3.925.01,5.887a1.146,1.146,0,0,0,1.733,1.121c.575-.308.608-.863.607-1.439-.008-3.37,0-6.741,0-10.111,0-.469.027-.941-.011-1.407a1.157,1.157,0,0,0-1.595-1.127c-.692.193-.744.747-.746,1.318-.005,1.92,0,3.84,0,5.759" transform="translate(-75.851 -43.543)" fill="#030303"/>
    <path id="Path_184" data-name="Path 184" d="M186.145,57.959h4.616l2.542,3.818v-3.8h4.844V79.934h-4.884c.18-4.69.01-9.307-2.247-13.869V79.948h-4.871Z" transform="translate(-138.165 -43.02)" fill="#030303"/>
    <path id="Path_185" data-name="Path 185" d="M246.956,79.1a6.35,6.35,0,0,1-3.732,1.3,2.819,2.819,0,0,1-2.851-1.783,9.182,9.182,0,0,1-.749-2.685,42.131,42.131,0,0,1-.058-4.6,5.093,5.093,0,0,1,2.838-4.557c1.2-.658,2.443-1.222,3.669-1.823.3-.147.611-.275.959-.43a16.088,16.088,0,0,0-.012-1.692,1.076,1.076,0,0,0-1.217-1.045c-.7.014-1.045.338-1.1,1.13-.039.544-.007,1.093-.007,1.7h-4.763a8.356,8.356,0,0,1,.613-4.229,3.7,3.7,0,0,1,3.41-2.331,20.734,20.734,0,0,1,4.466.227A4.15,4.15,0,0,1,251.958,62a11.783,11.783,0,0,1,.194,1.909c.016,5.173.01,10.346.008,15.52,0,.163-.021.327-.037.56h-4.988l-.179-.89m.085-10.318c-1.556,1.076-2.485,2.328-2.363,4.188.047.72-.013,1.446.018,2.167.037.839.427,1.264,1.1,1.28.733.018,1.218-.442,1.231-1.316.031-2.067.01-4.134.01-6.319" transform="translate(-177.792 -43.068)" fill="#030303"/>
    <path id="Path_186" data-name="Path 186" d="M46.255,57.992H51.3V73.9c0,.3,0,.6,0,.9,0,.474-.027.964.484,1.231a1.251,1.251,0,0,0,1.626-.411v-17.6h5.007c.019.3.054.589.054.877,0,4.872.01,9.744-.008,14.616a16.281,16.281,0,0,1-.194,2.295,4.957,4.957,0,0,1-4.2,4.4,8.612,8.612,0,0,1-4.2-.214,4.861,4.861,0,0,1-3.4-3.833,11.472,11.472,0,0,1-.258-2.414c-.023-5.086-.012-10.171-.01-15.257,0-.124.024-.247.051-.5" transform="translate(-34.291 -43.044)" fill="#030303"/>
    <path id="Path_187" data-name="Path 187" d="M443.588,80.014h-4.752V76.6h-2.307V80h-4.865c0-1.23-.04-2.457.008-3.68a58.651,58.651,0,0,1,.659-9.181,47.237,47.237,0,0,1,3.054-9.087h4.462a18.552,18.552,0,0,1,2.042,4.559,31.319,31.319,0,0,1,1.476,8.152c.16,2.9.184,5.8.263,8.7,0,.162-.023.325-.041.551M438.6,72.361A25.532,25.532,0,0,0,437.48,64.2a27.538,27.538,0,0,0-1.1,8.162Z" transform="translate(-320.388 -43.086)" fill="#030303"/>
    <path id="Path_188" data-name="Path 188" d="M10.514,62.192H7.781V80.075H2.825V62.222H0V58.149H10.514Z" transform="translate(0 -43.161)" fill="#030303"/>
    <rect id="Rectangle_31" data-name="Rectangle 31" width="4.972" height="21.461" transform="translate(40.836 15.475)" fill="#030303"/>
    <rect id="Rectangle_32" data-name="Rectangle 32" width="5.007" height="2.39" transform="translate(40.829 11.774)" fill="#030303"/>
  </g>
</svg>
