<svg id="security" xmlns="http://www.w3.org/2000/svg" width="64.325" height="82.606" viewBox="0 0 64.325 82.606">
  <path id="Path_34" data-name="Path 34" d="M63.562,16.725,32.515.182a1.543,1.543,0,0,0-1.47.009L.857,16.734a1.546,1.546,0,0,0-.8,1.356V39.7A44.745,44.745,0,0,0,26.874,80.651l4.19,1.826a1.544,1.544,0,0,0,1.23,0l4.722-2.039A44.657,44.657,0,0,0,64.38,39.271V18.09a1.546,1.546,0,0,0-.819-1.365ZM61.289,39.271A41.573,41.573,0,0,1,35.805,77.6l-.01.005-4.112,1.775-3.573-1.559A41.65,41.65,0,0,1,3.145,39.7V19L31.8,3.3,61.289,19.016Zm0,0" transform="translate(-0.055 0)" fill="#fff"/>
  <path id="Path_35" data-name="Path 35" d="M82.563,152.49a1.546,1.546,0,0,0-2.351,2.007l8.165,9.561a1.545,1.545,0,0,0,2.15.2l19.015-15.47a1.546,1.546,0,0,0-1.951-2.4L89.747,160.9Zm0,0" transform="translate(-62.224 -113.792)" fill="#fff"/>
</svg>
