<svg xmlns="http://www.w3.org/2000/svg" id="Calque_2" data-name="Calque 2" viewBox="0 0 100 100.01">
  <defs fill="#000000">
    <style>
      .cls-1 {
        fill: #e0004d;
      }
    </style>
  </defs>
  <g id="Calque_1-2" data-name="Calque 1">
    <path class="cls-1" d="M98.75,12.37c1.67,1.68,1.67,4.39,0,6.06l-8.95,8.96-17.17-17.17L81.58,1.26c1.68-1.68,4.39-1.68,6.07,0l11.1,11.1h0Zm-15.02,21.09l-17.17-17.17L8.06,74.78c-.47,.47-.83,1.05-1.04,1.68L.11,97.19c-.37,1.13,.24,2.34,1.36,2.71,.44,.15,.91,.15,1.35,0l20.73-6.91c.63-.21,1.21-.56,1.68-1.03l58.49-58.5h0Z" fill="#000000"/>
  </g>
</svg>