<svg xmlns="http://www.w3.org/2000/svg" id="Calque_2" data-name="Calque 2" viewBox="0 0 100 78.17">
  <defs fill="#000000">
    <style>
      .cls-1 {
        fill: #222222;
      }
    </style>
  </defs>
  <g id="Calque_1-2" data-name="Calque 1">
    <path class="cls-1" d="M32.64,30.26c0,4.47-3.62,8.09-8.09,8.09s-8.09-3.62-8.09-8.09,3.62-8.09,8.09-8.09,8.09,3.62,8.09,8.09Z" fill="#000000"/>
    <path class="cls-1" d="M92.78,33.69v.27h-.32c.11-.11,.22-.16,.32-.27Z" fill="#000000"/>
    <path class="cls-1" d="M81.13,0c-5.44,0-10.35,2.32-13.75,5.98H10.84C4.85,5.98,0,10.62,0,16.28v51.54c0,5.71,4.85,10.35,10.84,10.35H76.01c5.98,0,10.84-4.64,10.84-10.35v-31c2.05-.59,3.94-1.62,5.61-2.86,.11-.11,.22-.16,.32-.27,4.42-3.45,7.22-8.79,7.22-14.82,0-10.46-8.41-18.87-18.87-18.87Zm.27,49.81l-20.49-10.03c-1.02-.48-2.32-.32-3.13,.49l-20.16,19.08-14.39-9.11c-1.08-.7-2.53-.54-3.45,.32l-14.34,12.13V16.28c0-2.8,2.43-5.12,5.39-5.12H63.94c-1.08,2.32-1.67,4.96-1.67,7.71,0,4.64,1.73,8.95,4.58,12.24,.86,1.13,1.94,2.1,3.07,2.86,3.13,2.43,7.01,3.77,11.21,3.77h.27v12.08Zm7.82-28.25h-5.39v5.39c0,1.35-1.02,2.53-2.43,2.7h-.27c-1.46,0-2.7-1.24-2.7-2.7v-5.39h-5.39c-1.46,0-2.7-1.24-2.7-2.7s1.24-2.7,2.7-2.7h5.39v-5.39c0-1.51,1.24-2.7,2.7-2.7s2.7,1.19,2.7,2.7v5.39h5.39c1.51,0,2.7,1.19,2.7,2.7s-1.19,2.7-2.7,2.7Z" fill="#000000"/>
  </g>
</svg>