<svg xmlns="http://www.w3.org/2000/svg" viewBox="0 0 1031.63 175.62"><defs><style>.cls-1{fill:#0071b5;}</style></defs><g id="Layer_2" data-name="Layer 2"><g id="Layer_1-2" data-name="Layer 1"><path class="cls-1" d="M293.81.14v3.2q0,83.23-.15,166.46c0,1.24-2.2,3.47-3.46,3.53-6.69.36-13.4.17-20.51.17a28.22,28.22,0,0,1-.51-3.56c0-10.55.09-21.11-.18-31.66,0-1.24-2.19-3.49-3.37-3.49-46.71-.18-93.42-.33-140.13.24-3,0-6.74,5.28-8.87,8.85-5.34,8.94-9.92,18.34-14.89,27.5-.47.86-1.54,2-2.35,2-8.7.15-17.4.09-27.36.09,6.35-13.15,12.37-25.65,18.65-38.67H0V107.94H3.33c33.75,0,67.51-.21,101.26.19,6.09.08,7.44-4.34,10.36-7.37,10.94-11.33,21-23.54,32.64-34.14C172.32,44,200.43,26.29,232.16,15.35,250.5,9,269.67,5.1,288.48.19,290-.21,291.77.14,293.81.14Zm-25,107.64V32c-28.2.28-125.24,59.89-123.49,75.78Z"/><path class="cls-1" d="M442.15,133.43l47.73,39.82c-12.57,0-24.2.79-35.63-.41-4.16-.44-7.88-5.55-11.69-8.67-11.7-9.58-23.34-19.23-35-28.8a3.67,3.67,0,0,0-2.19-.7q-29.64-.06-59.27,0a16.83,16.83,0,0,0-2.16.31c-.09,1.23-.24,2.39-.24,3.55,0,10.55.08,21.11-.15,31.65,0,1.09-2,3-3.08,3-6.62.29-13.27.27-19.9,0-1,0-2.85-1.83-2.86-2.81q-.21-69.69-.11-139.36c0-.85.18-1.71.31-2.91,1.45-.08,2.77-.21,4.09-.21,39,0,78.06,0,117.09,0,16.79,0,28.3,8.74,37.26,21.83C486.08,64,487,80.07,483.53,96.1c-3.62,16.64-14.82,27.76-30.6,34.09C449.86,131.42,446.58,132.12,442.15,133.43ZM344,54.53v53.41h3.33c28.7,0,57.42.33,86.11-.3,5.31-.12,11.44-3.08,15.63-6.58,9.8-8.19,10.89-19.3,6.9-30.91-3.25-9.45-9.91-16-22.33-15.77-28.53.49-57.08.15-85.63.15Z"/><path class="cls-1" d="M770.37,175.54c-22.91.11-44.22-5.75-62.59-19.32-21.35-15.78-33.69-36.67-30.23-64.32,1.52-12.18,6.85-22.9,14.73-32.38C708,40.61,728.64,31,752.41,26.94c28.56-4.82,55.17.55,78.93,16.87,22.52,15.46,35.48,36.65,32,65-2.29,18.66-12.39,33.2-27,44.8C817,168.94,794.71,175.32,770.37,175.54Zm3.16-27.25c3.82-.55,10.12-1.34,16.38-2.4,15.56-2.65,29-9.48,39.37-21.49,7.76-9,10.91-19.7,8.57-31.2-3.2-15.74-14.13-25.58-27.93-32.49-17.22-8.62-35.52-10.22-54.3-7.29-16.85,2.62-31.56,9.31-43,22.57a37.51,37.51,0,0,0,1.87,50.43C730.16,142.14,749.64,147.38,773.53,148.29Z"/><path class="cls-1" d="M1028.09,49.54c-5.41,6-10.34,11.36-15,16.49-6.41-3.08-12-6.74-18.15-8.5a279,279,0,0,0-34.47-7.85,81.67,81.67,0,0,0-44.54,5.77A19.31,19.31,0,0,0,908,61.33c-4.43,6.06-2.79,12.48,4.62,15.53a130.64,130.64,0,0,0,23.86,7c23.39,4.73,47.79,4.49,70.21,14,10.07,4.27,18.76,10.29,23.05,21,5.46,13.62-1.21,31.45-14.41,40.18-14.12,9.33-29.69,13.78-46.31,15.59-30.1,3.27-58-3.22-84-18.32-4-2.34-7.36-5.9-11.41-9.21L888.72,131c7.68,4.16,14.4,9.15,21.95,11.58,11.73,3.79,23.94,6.28,36.1,8.5,13.35,2.43,26.56.2,39.31-4A35.2,35.2,0,0,0,998.56,140c8-7.25,6.67-15.79-3.34-19.92a107.08,107.08,0,0,0-23.65-6.31c-15.26-2.49-30.84-3.28-45.94-6.42-15.72-3.26-31.34-7.65-42.33-21.14-8.58-10.54-8-28.35,1.58-38.28,10.7-11.07,24.27-16.59,38.9-19.4,10.1-1.93,20.52-3.51,30.74-3.23,26,.71,50.14,8,71.7,22.94C1027,48.74,1027.77,49.31,1028.09,49.54Z"/><path class="cls-1" d="M653.73,126.07l17.39,18.37c-4.92,4.25-9.63,9.18-15.13,12.94-21.43,14.66-45.48,19.88-71.08,17.8-23.88-1.94-45.26-10.5-62.53-27.38-10.76-10.51-18.11-23.17-20.23-38.58-3.08-22.39,5-40.57,20.45-56,14.85-14.81,33.11-23.18,53.66-26,10.37-1.42,21.13-2.21,31.47-1.06,24.3,2.71,46,11.87,62.88,30.35a3.33,3.33,0,0,1,.35.61c-5.94,5.81-11.85,11.61-18,17.63-7.81-9.2-18.2-15.22-29.91-18.55a118.53,118.53,0,0,0-22.52-3.69c-18.26-1.55-35.41,2.31-50.9,12.3-12.44,8-20.89,19.08-21.5,34.22-.51,12.66,5.36,23.19,15,31.26,17.2,14.44,37.64,19,59.45,17.47,18.3-1.25,35-7.1,48.58-20.23a8.83,8.83,0,0,1,1.12-.9A9.33,9.33,0,0,1,653.73,126.07Z"/></g></g></svg>