<svg xmlns="http://www.w3.org/2000/svg" width="86.11" height="35.036" viewBox="0 0 86.11 35.036">
  <g id="indo" transform="translate(-1.324 -65.736)">
    <path id="Path_68" data-name="Path 68" d="M66.811,97.555a11.855,11.855,0,1,1,16.533-12.7,8.341,8.341,0,0,0-1.016-.539,8.6,8.6,0,0,0-9.315,14.191,11.826,11.826,0,0,1-6.2-.951ZM50.593,92.131a14.792,14.792,0,0,1-2.1.183,5.58,5.58,0,0,1-5.639-5.728c0-3.583,2.145-5.592,5.728-5.592a13.638,13.638,0,0,1,2.014.131V92.131ZM9.379,69.853A3.866,3.866,0,0,0,5.352,66a3.874,3.874,0,1,0,0,7.742,3.956,3.956,0,0,0,4.028-3.892ZM8.71,97.414V76.25H1.952V97.414Zm25.009,0V83.453c0-5.906-3.71-7.695-7.02-7.695A11.812,11.812,0,0,0,19.317,78.4l-.674-2.145h-5.77V97.414h6.758v-14.5a8.265,8.265,0,0,1,4.562-1.475c2.37,0,2.773,2.056,2.773,3.892V97.414h6.753Zm23.627-1.391V65.736H50.593V75.847c-.716-.047-1.386-.089-2.2-.089-7.381,0-12.257,4.562-12.257,11.142,0,7.067,5.32,10.959,11.947,10.959a20.093,20.093,0,0,0,9.259-1.836Z" fill="#6c9b3b" fill-rule="evenodd"/>
    <path id="Path_69" data-name="Path 69" d="M247.874,127.321h-.154a8.6,8.6,0,0,0-7.706,5.1h0a8.59,8.59,0,0,0,2.037,9.831h0A11.853,11.853,0,0,0,252.381,128.6h0a8.345,8.345,0,0,0-1.016-.539,8.575,8.575,0,0,0-3.382-.744Z" transform="translate(-169.038 -43.751)" fill="#e1ebd3"/>
    <path id="Path_70" data-name="Path 70" d="M259.209,131.753a11.874,11.874,0,0,1,.15,1.873h0A11.881,11.881,0,0,1,248.878,145.4a8.6,8.6,0,0,0,5.813,2.267,8.6,8.6,0,0,0,4.518-15.919Z" transform="translate(-175.866 -46.899)" fill="#88af5f"/>
  </g>
</svg>
