<svg id="Logo" xmlns="http://www.w3.org/2000/svg" width="190.2" height="46.678" viewBox="0 0 190.2 46.678">
  <g id="Group_4" data-name="Group 4" transform="translate(59.784)">
    <g id="Group_1" data-name="Group 1" transform="translate(0.23 0)">
      <path id="Path_1" data-name="Path 1" d="M614.36,354.244a.191.191,0,0,1,.14-.058h1.925a.2.2,0,0,1,.2.2v11.123a.2.2,0,0,1-.2.2h-1.859a.235.235,0,0,1-.23-.132l-4.262-7.043c-.022-.033-.044-.046-.066-.041s-.033.031-.033.074l.033,6.944a.2.2,0,0,1-.2.2h-1.925a.2.2,0,0,1-.2-.2V354.384a.2.2,0,0,1,.2-.2h1.859a.235.235,0,0,1,.23.132l4.245,7.009c.022.033.044.047.066.041s.033-.03.033-.074l-.016-6.911A.19.19,0,0,1,614.36,354.244Z" transform="translate(-607.688 -354.054)" fill="#00303c"/>
      <path id="Path_2" data-name="Path 2" d="M639.609,356.12a.192.192,0,0,1-.14.057h-5.4a.072.072,0,0,0-.082.082v2.551a.073.073,0,0,0,.082.082h3.538a.2.2,0,0,1,.2.2v1.6a.2.2,0,0,1-.2.2h-3.538a.073.073,0,0,0-.082.082v2.666a.072.072,0,0,0,.082.082h5.4a.2.2,0,0,1,.2.2v1.6a.2.2,0,0,1-.2.2h-7.6a.2.2,0,0,1-.2-.2V354.384a.2.2,0,0,1,.2-.2h7.6a.2.2,0,0,1,.2.2v1.6A.192.192,0,0,1,639.609,356.12Z" transform="translate(-620.497 -354.054)" fill="#00303c"/>
      <path id="Path_3" data-name="Path 3" d="M660.467,354.244a.191.191,0,0,1,.058.14V356a.2.2,0,0,1-.2.2h-2.945a.073.073,0,0,0-.082.082v9.231a.2.2,0,0,1-.2.2h-1.925a.2.2,0,0,1-.2-.2v-9.231a.073.073,0,0,0-.082-.082h-2.863a.2.2,0,0,1-.2-.2v-1.612a.2.2,0,0,1,.2-.2h8.293A.191.191,0,0,1,660.467,354.244Z" transform="translate(-631.269 -354.054)" fill="#00303c"/>
      <path id="Path_4" data-name="Path 4" d="M675.993,365.54,673.08,354.4l-.016-.066c0-.1.06-.148.181-.148h2.04a.207.207,0,0,1,.214.164l1.563,6.7c.011.044.028.066.049.066s.039-.022.049-.066l1.514-6.68a.211.211,0,0,1,.214-.181h1.991a.217.217,0,0,1,.23.164l1.645,6.7c.011.033.027.052.049.058s.038-.014.049-.058l1.514-6.68a.211.211,0,0,1,.214-.181h1.941c.154,0,.214.072.181.214l-2.7,11.14a.216.216,0,0,1-.23.164h-1.958a.206.206,0,0,1-.214-.164l-1.679-7.125c-.011-.043-.028-.066-.049-.066s-.039.022-.049.066l-1.563,7.108a.2.2,0,0,1-.214.181h-1.827A.216.216,0,0,1,675.993,365.54Z" transform="translate(-642.607 -354.054)" fill="#00303c"/>
      <path id="Path_5" data-name="Path 5" d="M706.457,365.207a3.782,3.782,0,0,1-1.522-1.473,4.3,4.3,0,0,1-.543-2.18v-3.521a4.225,4.225,0,0,1,.543-2.156,3.743,3.743,0,0,1,1.522-1.456,5.227,5.227,0,0,1,4.542,0,3.744,3.744,0,0,1,1.522,1.456,4.224,4.224,0,0,1,.543,2.156v3.521a4.346,4.346,0,0,1-.543,2.189A3.715,3.715,0,0,1,711,365.216a4.808,4.808,0,0,1-2.279.519A4.705,4.705,0,0,1,706.457,365.207Zm3.727-2.04a2.1,2.1,0,0,0,.559-1.53v-3.62a2.152,2.152,0,0,0-.551-1.538,1.932,1.932,0,0,0-1.473-.584,1.909,1.909,0,0,0-1.456.584,2.148,2.148,0,0,0-.552,1.538v3.62a2.118,2.118,0,0,0,.552,1.53,1.922,1.922,0,0,0,1.456.576A1.951,1.951,0,0,0,710.184,363.167Z" transform="translate(-659.341 -353.903)" fill="#00303c"/>
      <path id="Path_6" data-name="Path 6" d="M733.615,365.556,731.558,361a.107.107,0,0,0-.1-.066h-1.53a.073.073,0,0,0-.082.082v4.492a.2.2,0,0,1-.2.2h-1.925a.2.2,0,0,1-.2-.2V354.384a.2.2,0,0,1,.2-.2h4.706a3.86,3.86,0,0,1,1.851.428,3,3,0,0,1,1.234,1.218,3.718,3.718,0,0,1,.436,1.827,3.255,3.255,0,0,1-.56,1.917,2.979,2.979,0,0,1-1.563,1.127.078.078,0,0,0-.049.115l2.238,4.657a.261.261,0,0,1,.033.1c0,.088-.061.132-.181.132h-2.024A.233.233,0,0,1,733.615,365.556Zm-3.768-9.3v2.814a.073.073,0,0,0,.082.082h2.156a1.576,1.576,0,0,0,1.127-.411,1.4,1.4,0,0,0,.436-1.07,1.432,1.432,0,0,0-.436-1.078,1.558,1.558,0,0,0-1.127-.42h-2.156A.072.072,0,0,0,729.847,356.259Z" transform="translate(-671.698 -354.054)" fill="#00303c"/>
      <path id="Path_7" data-name="Path 7" d="M749.977,365.646a.188.188,0,0,1-.057-.14V354.384a.2.2,0,0,1,.2-.2h1.925a.2.2,0,0,1,.2.2v4.607c0,.033.011.052.033.058a.068.068,0,0,0,.066-.025l3.8-4.723a.313.313,0,0,1,.247-.115h2.172c.088,0,.143.025.164.074a.177.177,0,0,1-.033.173l-3.669,4.689a.094.094,0,0,0-.017.115l3.883,6.237a.659.659,0,0,1,.033.115c0,.077-.055.115-.164.115h-2.172a.236.236,0,0,1-.231-.132l-2.928-4.739a.053.053,0,0,0-.049-.033.094.094,0,0,0-.066.033l-1.037,1.3a.252.252,0,0,0-.033.1v3.275a.2.2,0,0,1-.2.2h-1.925A.189.189,0,0,1,749.977,365.646Z" transform="translate(-683.658 -354.054)" fill="#00303c"/>
    </g>
    <g id="Group_2" data-name="Group 2" transform="translate(0 17.473)">
      <path id="Path_8" data-name="Path 8" d="M609.218,402.689a3.6,3.6,0,0,1-1.5-1.407,4.076,4.076,0,0,1-.526-2.089v-3.8a4.076,4.076,0,0,1,.526-2.089,3.549,3.549,0,0,1,1.5-1.4,4.9,4.9,0,0,1,2.254-.494,5.03,5.03,0,0,1,2.23.469,3.542,3.542,0,0,1,1.5,1.332,3.726,3.726,0,0,1,.534,2q0,.148-.2.181l-1.925.115h-.033c-.109,0-.164-.06-.164-.181a1.876,1.876,0,0,0-.534-1.4,2.165,2.165,0,0,0-2.83,0,1.873,1.873,0,0,0-.535,1.4v3.965a1.853,1.853,0,0,0,.535,1.382,2.165,2.165,0,0,0,2.83,0,1.856,1.856,0,0,0,.534-1.382q0-.181.2-.181l1.925.082a.208.208,0,0,1,.14.049.148.148,0,0,1,.057.115,3.767,3.767,0,0,1-.534,2.007,3.573,3.573,0,0,1-1.5,1.349,4.955,4.955,0,0,1-2.23.478A4.842,4.842,0,0,1,609.218,402.689Z" transform="translate(-607.194 -391.409)" fill="#00303c"/>
      <path id="Path_9" data-name="Path 9" d="M635.956,403.062,633.9,398.5a.106.106,0,0,0-.1-.066h-1.53a.073.073,0,0,0-.082.082v4.492a.2.2,0,0,1-.2.2h-1.925a.2.2,0,0,1-.2-.2V391.889a.2.2,0,0,1,.2-.2h4.706a3.862,3.862,0,0,1,1.851.428,3,3,0,0,1,1.234,1.218,3.721,3.721,0,0,1,.436,1.826,3.256,3.256,0,0,1-.559,1.917,2.979,2.979,0,0,1-1.563,1.127.078.078,0,0,0-.049.115l2.238,4.657a.253.253,0,0,1,.033.1q0,.132-.181.132h-2.024A.233.233,0,0,1,635.956,403.062Zm-3.768-9.3v2.813a.073.073,0,0,0,.082.082h2.155a1.576,1.576,0,0,0,1.127-.411,1.4,1.4,0,0,0,.436-1.07,1.432,1.432,0,0,0-.436-1.078,1.558,1.558,0,0,0-1.127-.42h-2.155A.073.073,0,0,0,632.188,393.765Z" transform="translate(-619.305 -391.56)" fill="#00303c"/>
      <path id="Path_10" data-name="Path 10" d="M660.2,393.625a.188.188,0,0,1-.14.057h-5.4a.073.073,0,0,0-.082.082v2.55a.073.073,0,0,0,.082.082H658.2a.2.2,0,0,1,.2.2v1.6a.2.2,0,0,1-.2.2h-3.538a.073.073,0,0,0-.082.082v2.666a.072.072,0,0,0,.082.082h5.4a.2.2,0,0,1,.2.2v1.6a.2.2,0,0,1-.2.2h-7.6a.2.2,0,0,1-.2-.2V391.889a.2.2,0,0,1,.2-.2h7.6a.2.2,0,0,1,.2.2v1.6A.191.191,0,0,1,660.2,393.625Z" transform="translate(-631.266 -391.56)" fill="#00303c"/>
      <path id="Path_11" data-name="Path 11" d="M680.064,403.045l-.494-1.613c-.022-.043-.049-.066-.082-.066H675.44c-.033,0-.061.022-.082.066l-.477,1.613a.206.206,0,0,1-.214.164h-2.09a.185.185,0,0,1-.148-.057.18.18,0,0,1-.016-.173l3.554-11.123a.206.206,0,0,1,.214-.164h2.583a.207.207,0,0,1,.214.164l3.554,11.123a.185.185,0,0,1,.016.082c0,.1-.061.148-.181.148h-2.09A.206.206,0,0,1,680.064,403.045Zm-4.048-3.472h2.9c.066,0,.088-.033.066-.1l-1.481-4.887c-.011-.044-.027-.063-.049-.058a.077.077,0,0,0-.049.058l-1.448,4.887C675.939,399.54,675.961,399.573,676.016,399.573Z" transform="translate(-642.022 -391.56)" fill="#00303c"/>
      <path id="Path_12" data-name="Path 12" d="M702.426,391.749a.192.192,0,0,1,.058.14V393.5a.2.2,0,0,1-.2.2h-2.945a.072.072,0,0,0-.082.082v9.231a.2.2,0,0,1-.2.2h-1.925a.2.2,0,0,1-.2-.2v-9.231a.073.073,0,0,0-.082-.082h-2.863a.2.2,0,0,1-.2-.2v-1.613a.2.2,0,0,1,.2-.2h8.293A.191.191,0,0,1,702.426,391.749Z" transform="translate(-653.451 -391.56)" fill="#00303c"/>
      <path id="Path_13" data-name="Path 13" d="M716.387,403.152a.19.19,0,0,1-.057-.14V391.889a.2.2,0,0,1,.2-.2h1.926a.2.2,0,0,1,.2.2v11.123a.2.2,0,0,1-.2.2h-1.926A.191.191,0,0,1,716.387,403.152Z" transform="translate(-665.487 -391.56)" fill="#00303c"/>
      <path id="Path_14" data-name="Path 14" d="M728.53,403.045l-3.39-11.123-.016-.066c0-.11.06-.164.181-.164h2.073a.217.217,0,0,1,.231.164l2.189,8.029c.01.033.027.049.049.049s.039-.016.049-.049l2.156-8.029a.216.216,0,0,1,.231-.164h2.024a.174.174,0,0,1,.148.066.17.17,0,0,1,.016.164l-3.439,11.123a.207.207,0,0,1-.214.164h-2.073A.206.206,0,0,1,728.53,403.045Z" transform="translate(-670.184 -391.56)" fill="#00303c"/>
      <path id="Path_15" data-name="Path 15" d="M749.057,403.152a.189.189,0,0,1-.057-.14V391.889a.2.2,0,0,1,.2-.2h1.925a.2.2,0,0,1,.2.2v11.123a.2.2,0,0,1-.2.2H749.2A.19.19,0,0,1,749.057,403.152Z" transform="translate(-682.937 -391.56)" fill="#00303c"/>
      <path id="Path_16" data-name="Path 16" d="M766.459,391.749a.192.192,0,0,1,.058.14V393.5a.2.2,0,0,1-.2.2h-2.945a.072.072,0,0,0-.082.082v9.231a.2.2,0,0,1-.2.2h-1.925a.2.2,0,0,1-.2-.2v-9.231a.073.073,0,0,0-.082-.082h-2.863a.2.2,0,0,1-.2-.2v-1.613a.2.2,0,0,1,.2-.2h8.293A.191.191,0,0,1,766.459,391.749Z" transform="translate(-687.653 -391.56)" fill="#00303c"/>
      <path id="Path_17" data-name="Path 17" d="M782.728,403.136a.192.192,0,0,1-.057-.14v-4.163a.235.235,0,0,0-.016-.1l-3.39-6.812a.247.247,0,0,1-.033-.1c0-.088.06-.131.181-.131h2.073a.234.234,0,0,1,.231.148l2.057,4.376c.033.066.066.066.1,0l2.056-4.376a.233.233,0,0,1,.231-.148h2.106a.181.181,0,0,1,.156.057.178.178,0,0,1-.008.173l-3.422,6.812a.228.228,0,0,0-.016.1V403a.2.2,0,0,1-.2.2h-1.909A.191.191,0,0,1,782.728,403.136Z" transform="translate(-699.085 -391.56)" fill="#00303c"/>
    </g>
    <g id="Group_3" data-name="Group 3" transform="translate(0.23 34.896)">
      <path id="Path_18" data-name="Path 18" d="M615.323,429.091h1.925a.2.2,0,0,1,.2.2v11.123a.2.2,0,0,1-.2.2h-1.925a.2.2,0,0,1-.2-.2v-7.256c0-.044-.011-.066-.033-.066s-.044.016-.066.049l-1.744,2.731a.257.257,0,0,1-.23.131h-.971a.257.257,0,0,1-.23-.131l-1.744-2.731c-.022-.033-.044-.047-.066-.041s-.033.03-.033.074v7.24a.2.2,0,0,1-.2.2h-1.925a.2.2,0,0,1-.2-.2V429.289a.2.2,0,0,1,.2-.2h1.925a.258.258,0,0,1,.231.132l2.468,3.834q.05.1.1,0l2.485-3.834A.257.257,0,0,1,615.323,429.091Z" transform="translate(-607.688 -428.959)" fill="#00303c"/>
      <path id="Path_19" data-name="Path 19" d="M640.118,440.445l-.494-1.613c-.022-.044-.049-.066-.082-.066h-4.048q-.05,0-.082.066l-.477,1.613a.207.207,0,0,1-.214.164h-2.09a.184.184,0,0,1-.148-.058.181.181,0,0,1-.016-.173l3.554-11.123a.207.207,0,0,1,.214-.164h2.583a.207.207,0,0,1,.214.164l3.554,11.123a.188.188,0,0,1,.016.082c0,.1-.061.148-.181.148h-2.09A.206.206,0,0,1,640.118,440.445Zm-4.048-3.472h2.9c.066,0,.088-.033.066-.1l-1.481-4.887c-.011-.043-.028-.063-.049-.058a.078.078,0,0,0-.049.058L636,436.874C635.994,436.94,636.016,436.973,636.07,436.973Z" transform="translate(-620.916 -428.959)" fill="#00303c"/>
      <path id="Path_20" data-name="Path 20" d="M664.726,429.148a.192.192,0,0,1,.14-.057h1.925a.2.2,0,0,1,.2.2v11.123a.2.2,0,0,1-.2.2h-1.859a.235.235,0,0,1-.23-.132l-4.262-7.043c-.022-.033-.044-.047-.066-.041s-.033.03-.033.074l.033,6.944a.2.2,0,0,1-.2.2h-1.925a.2.2,0,0,1-.2-.2V429.289a.2.2,0,0,1,.2-.2h1.86a.236.236,0,0,1,.23.132l4.246,7.01c.021.033.043.047.066.041s.033-.03.033-.074l-.016-6.911A.192.192,0,0,1,664.726,429.148Z" transform="translate(-634.59 -428.959)" fill="#00303c"/>
      <path id="Path_21" data-name="Path 21" d="M684.1,440.247a3.633,3.633,0,0,1-1.5-1.391,3.953,3.953,0,0,1-.535-2.065v-7.5a.2.2,0,0,1,.2-.2h1.925a.2.2,0,0,1,.2.2v7.52a1.943,1.943,0,1,0,3.883,0v-7.52a.2.2,0,0,1,.2-.2H690.4a.2.2,0,0,1,.2.2v7.5a3.949,3.949,0,0,1-.535,2.065,3.63,3.63,0,0,1-1.5,1.391,5.284,5.284,0,0,1-4.459,0Z" transform="translate(-647.418 -428.959)" fill="#00303c"/>
      <path id="Path_22" data-name="Path 22" d="M713.092,431.024a.191.191,0,0,1-.14.058h-5.38a.073.073,0,0,0-.082.082v2.551a.073.073,0,0,0,.082.082h3.537a.2.2,0,0,1,.2.2v1.6a.2.2,0,0,1-.2.2h-3.537a.073.073,0,0,0-.082.082v4.541a.2.2,0,0,1-.2.2h-1.925a.2.2,0,0,1-.2-.2V429.289a.2.2,0,0,1,.2-.2h7.585a.2.2,0,0,1,.2.2v1.6A.191.191,0,0,1,713.092,431.024Z" transform="translate(-659.756 -428.959)" fill="#00303c"/>
      <path id="Path_23" data-name="Path 23" d="M729.37,440.445l-.494-1.613c-.022-.044-.049-.066-.082-.066h-4.048q-.05,0-.082.066l-.477,1.613a.207.207,0,0,1-.214.164h-2.09a.184.184,0,0,1-.148-.058.181.181,0,0,1-.016-.173l3.554-11.123a.207.207,0,0,1,.214-.164h2.583a.207.207,0,0,1,.214.164l3.554,11.123a.187.187,0,0,1,.016.082c0,.1-.061.148-.181.148h-2.09A.206.206,0,0,1,729.37,440.445Zm-4.048-3.472h2.9c.066,0,.088-.033.066-.1l-1.481-4.887c-.011-.043-.027-.063-.049-.058a.077.077,0,0,0-.049.058l-1.448,4.887C725.246,436.94,725.267,436.973,725.322,436.973Z" transform="translate(-668.588 -428.959)" fill="#00303c"/>
      <path id="Path_24" data-name="Path 24" d="M748.093,440.088a3.6,3.6,0,0,1-1.5-1.407,4.077,4.077,0,0,1-.526-2.089v-3.8a4.08,4.08,0,0,1,.526-2.09,3.552,3.552,0,0,1,1.5-1.4,4.912,4.912,0,0,1,2.254-.494,5.033,5.033,0,0,1,2.23.469,3.537,3.537,0,0,1,1.5,1.333,3.721,3.721,0,0,1,.535,2q0,.148-.2.181l-1.925.115h-.033c-.11,0-.164-.06-.164-.181a1.876,1.876,0,0,0-.535-1.4,1.919,1.919,0,0,0-1.407-.526,1.941,1.941,0,0,0-1.423.526,1.876,1.876,0,0,0-.535,1.4v3.965a1.853,1.853,0,0,0,.535,1.382,1.94,1.94,0,0,0,1.423.527,1.918,1.918,0,0,0,1.407-.527,1.853,1.853,0,0,0,.535-1.382q0-.181.2-.181l1.925.082a.206.206,0,0,1,.14.049.148.148,0,0,1,.058.115,3.763,3.763,0,0,1-.535,2.007,3.576,3.576,0,0,1-1.5,1.349,4.959,4.959,0,0,1-2.23.477A4.838,4.838,0,0,1,748.093,440.088Z" transform="translate(-681.601 -428.808)" fill="#00303c"/>
      <path id="Path_25" data-name="Path 25" d="M775.926,429.148a.192.192,0,0,1,.058.14V430.9a.2.2,0,0,1-.2.2h-2.945a.073.073,0,0,0-.083.082v9.231a.2.2,0,0,1-.2.2h-1.925a.2.2,0,0,1-.2-.2v-9.231a.073.073,0,0,0-.082-.082h-2.863a.2.2,0,0,1-.2-.2v-1.612a.2.2,0,0,1,.2-.2h8.293A.191.191,0,0,1,775.926,429.148Z" transform="translate(-692.939 -428.959)" fill="#00303c"/>
      <path id="Path_26" data-name="Path 26" d="M791.685,440.247a3.636,3.636,0,0,1-1.5-1.391,3.953,3.953,0,0,1-.534-2.065v-7.5a.2.2,0,0,1,.2-.2h1.925a.2.2,0,0,1,.2.2v7.52a1.943,1.943,0,1,0,3.883,0v-7.52a.2.2,0,0,1,.2-.2h1.925a.2.2,0,0,1,.2.2v7.5a3.953,3.953,0,0,1-.535,2.065,3.631,3.631,0,0,1-1.5,1.391,5.285,5.285,0,0,1-4.459,0Z" transform="translate(-704.881 -428.959)" fill="#00303c"/>
      <path id="Path_27" data-name="Path 27" d="M818.84,440.461l-2.057-4.558a.106.106,0,0,0-.1-.066h-1.53a.073.073,0,0,0-.082.082v4.492a.2.2,0,0,1-.2.2h-1.925a.2.2,0,0,1-.2-.2V429.289a.2.2,0,0,1,.2-.2h4.706a3.862,3.862,0,0,1,1.851.428,3,3,0,0,1,1.234,1.218,3.722,3.722,0,0,1,.436,1.827,3.252,3.252,0,0,1-.56,1.917,2.979,2.979,0,0,1-1.563,1.127.078.078,0,0,0-.049.115l2.238,4.656a.26.26,0,0,1,.033.1c0,.088-.061.132-.181.132H819.07A.233.233,0,0,1,818.84,440.461Zm-3.768-9.3v2.814a.073.073,0,0,0,.082.082h2.156a1.576,1.576,0,0,0,1.127-.411,1.406,1.406,0,0,0,.436-1.07,1.432,1.432,0,0,0-.436-1.078,1.559,1.559,0,0,0-1.127-.419h-2.156A.073.073,0,0,0,815.072,431.164Z" transform="translate(-717.219 -428.959)" fill="#00303c"/>
      <path id="Path_28" data-name="Path 28" d="M835.2,440.551a.19.19,0,0,1-.057-.14V429.289a.2.2,0,0,1,.2-.2h1.925a.2.2,0,0,1,.2.2v11.123a.2.2,0,0,1-.2.2h-1.925A.19.19,0,0,1,835.2,440.551Z" transform="translate(-729.18 -428.959)" fill="#00303c"/>
      <path id="Path_29" data-name="Path 29" d="M851.811,429.148a.19.19,0,0,1,.14-.057h1.925a.2.2,0,0,1,.2.2v11.123a.2.2,0,0,1-.2.2h-1.859a.235.235,0,0,1-.23-.132l-4.262-7.043c-.022-.033-.044-.047-.066-.041s-.033.03-.033.074l.033,6.944a.2.2,0,0,1-.2.2h-1.925a.2.2,0,0,1-.2-.2V429.289a.2.2,0,0,1,.2-.2H847.2a.235.235,0,0,1,.23.132l4.246,7.01c.022.033.044.047.066.041s.033-.03.033-.074l-.016-6.911A.19.19,0,0,1,851.811,429.148Z" transform="translate(-734.518 -428.959)" fill="#00303c"/>
      <path id="Path_30" data-name="Path 30" d="M870.878,440.079a3.693,3.693,0,0,1-1.506-1.423,4.107,4.107,0,0,1-.535-2.114v-3.686a4.154,4.154,0,0,1,.535-2.122,3.629,3.629,0,0,1,1.506-1.424,5.224,5.224,0,0,1,4.451-.008,3.749,3.749,0,0,1,1.5,1.341,3.461,3.461,0,0,1,.535,1.884v.115a.2.2,0,0,1-.2.2h-1.925a.2.2,0,0,1-.2-.2v-.049a1.72,1.72,0,0,0-.527-1.276,2.13,2.13,0,0,0-2.822.033,1.981,1.981,0,0,0-.535,1.44v3.817a1.9,1.9,0,0,0,.576,1.44,2.03,2.03,0,0,0,1.465.552,1.982,1.982,0,0,0,1.365-.453,1.594,1.594,0,0,0,.51-1.258v-.741a.072.072,0,0,0-.082-.082h-1.843a.2.2,0,0,1-.2-.2v-1.514a.2.2,0,0,1,.2-.2h4.015a.2.2,0,0,1,.2.2v2.172a4.307,4.307,0,0,1-.526,2.172,3.484,3.484,0,0,1-1.489,1.406,4.886,4.886,0,0,1-2.23.485A4.74,4.74,0,0,1,870.878,440.079Z" transform="translate(-747.176 -428.808)" fill="#00303c"/>
    </g>
  </g>
  <g id="Group_6" data-name="Group 6">
    <g id="Group_5" data-name="Group 5">
      <path id="Path_31" data-name="Path 31" d="M499.581,424.288v3.518H478.866V404.878Z" transform="translate(-478.866 -381.13)" fill="#e0004d"/>
      <path id="Path_32" data-name="Path 32" d="M560.48,353.9v24.059l-21.738-20.367V353.9Z" transform="translate(-510.848 -353.903)" fill="#e0004d"/>
      <path id="Path_33" data-name="Path 33" d="M528.5,387.1v13.483H513.083l-34.216-32.066V353.9h14.216Z" transform="translate(-478.867 -353.903)" fill="#e0004d"/>
    </g>
  </g>
</svg>
