<svg id="Nespresso-logo" xmlns="http://www.w3.org/2000/svg" width="148.497" height="27.036" viewBox="0 0 148.497 27.036">
  <path id="Path_73" data-name="Path 73" d="M355.46,11.7h-.146c-2.074,0-8.879.655-8.915,9.17,0,8.879,7.459,9.315,8.951,9.315h.073a9.634,9.634,0,0,0,6.513-2.474,9.2,9.2,0,0,0,2.438-6.841C364.339,12.355,357.535,11.7,355.46,11.7Zm2.656,14.882a3.9,3.9,0,0,1-2.62.946h-.255a3.9,3.9,0,0,1-2.62-.946c-1.274-1.128-1.929-3.166-1.929-6.04.036-5.64,2.838-6.477,4.512-6.477h.255c1.674,0,4.476.837,4.512,6.477C360.045,23.417,359.39,25.454,358.117,26.582Z" transform="translate(-220.354 -7.443)"/>
  <path id="Path_74" data-name="Path 74" d="M41.767,32.759a15.988,15.988,0,0,1-5.458-4.075c-1.747-2-5.968-7.6-6-7.641-.582-.764-1.237-1.637-1.929-2.547A39.51,39.51,0,0,0,22.3,11.4V29.958h2.547V20.351l.036.073c.691.873,1.419,1.819,2.147,2.765,1.2,1.528,2.4,3.129,3.42,4.294.691.8,2.511,2.729,3.02,3.166a14.77,14.77,0,0,0,9.861,3.639,15.04,15.04,0,0,0,4.658-.728v-.109a10.432,10.432,0,0,1-1.892.182A14.11,14.11,0,0,1,41.767,32.759Z" transform="translate(-14.186 -7.252)"/>
  <path id="Path_75" data-name="Path 75" d="M11.535,5.6c1.747,1.965,6.113,7.569,6.186,7.641.582.764,1.237,1.637,1.929,2.547a40.907,40.907,0,0,0,6.04,7.1V4.257H23.179V13.9l-.073-.073c-.691-.873-1.419-1.819-2.147-2.765-1.2-1.528-2.4-3.129-3.42-4.294-.691-.8-2.656-2.729-3.166-3.166A14.745,14.745,0,0,0,4.512,0,13.2,13.2,0,0,0,0,.764V.873A8.08,8.08,0,0,1,1.929.691a11.293,11.293,0,0,1,4.185.837A14.7,14.7,0,0,1,11.535,5.6Z"/>
  <path id="Path_76" data-name="Path 76" d="M282.071,21.308c-2.074-1.783-4.366-2.22-6.113-3.42-1.2-.982-1.164-2.292-.509-2.947,1.492-1.637,4.476-.982,5.24-.8a9.716,9.716,0,0,1,2.22.873V12.939c-3.639-1.092-9.461-2.11-11.717,1.6a4.469,4.469,0,0,0,1.383,5.931c2.438,1.929,6.659,2.838,7.132,4.439a2.148,2.148,0,0,1-.619,2.292c-2.147,2.038-5.858.8-8.078-.218V29.2a13.748,13.748,0,0,0,8.224.8c1.856-.473,3.966-2.11,4.257-4.185C283.818,23.746,283.417,22.436,282.071,21.308Z" transform="translate(-172.144 -7.59)"/>
  <path id="Path_77" data-name="Path 77" d="M319.071,21.308c-2.074-1.783-4.366-2.22-6.113-3.42-1.2-.982-1.164-2.292-.509-2.947,1.492-1.637,4.476-.982,5.24-.8a9.715,9.715,0,0,1,2.22.873V12.939c-3.639-1.092-9.461-2.11-11.717,1.6a4.469,4.469,0,0,0,1.383,5.931c2.438,1.929,6.659,2.838,7.132,4.439a2.148,2.148,0,0,1-.619,2.292c-2.183,2.038-5.858.8-8.078-.218V29.2a13.748,13.748,0,0,0,8.224.8c1.856-.473,3.966-2.11,4.294-4.185C320.781,23.746,320.381,22.436,319.071,21.308Z" transform="translate(-195.681 -7.59)"/>
  <path id="Path_78" data-name="Path 78" d="M235.8,30.566h11.68v-2.11h-7.641V22.634h6.113V20.6h-6.113V15.21h7.641V13.1H235.8Z" transform="translate(-149.998 -8.333)"/>
  <path id="Path_79" data-name="Path 79" d="M123.571,21.308c-2.074-1.783-4.366-2.22-6.113-3.42-1.2-.982-1.164-2.292-.509-2.947,1.492-1.637,4.476-.982,5.24-.8a9.715,9.715,0,0,1,2.22.873V12.939c-3.639-1.092-9.461-2.11-11.717,1.6a4.469,4.469,0,0,0,1.383,5.931c2.438,1.929,6.659,2.838,7.132,4.439a2.148,2.148,0,0,1-.619,2.292c-2.147,2.038-5.858.8-8.078-.218V29.2a13.748,13.748,0,0,0,8.224.8c1.856-.473,3.966-2.11,4.294-4.185C125.281,23.746,124.881,22.436,123.571,21.308Z" transform="translate(-71.319 -7.59)"/>
  <path id="Path_80" data-name="Path 80" d="M77.4,30.566H89.117v-2.11H81.439V22.634h6.113V20.6H81.439V15.21h7.678V13.1H77.4Z" transform="translate(-49.236 -8.333)"/>
  <path id="Path_81" data-name="Path 81" d="M160.178,12.6H152.5V30.466h4.075V29.375l-.073-5.458s6.113.4,7.969-2.074a6.534,6.534,0,0,0,.873-5.968C164.581,13.655,162.434,12.636,160.178,12.6Zm.873,8.042c-1.092,1.2-2.947,1.019-4.548.91V14.892s3.275-.728,4.658,1.092A4.643,4.643,0,0,1,161.051,20.642Z" transform="translate(-97.009 -8.015)"/>
  <path id="Path_82" data-name="Path 82" d="M204.517,22.06a6.527,6.527,0,0,0,.873-5.858c-.728-2.147-2.838-3.166-5.058-3.2H192.8V30.5h4l-.036-6.441a13.342,13.342,0,0,0,1.929,0l3.857,6.477h4.4l-4.439-7.2A4.739,4.739,0,0,0,204.517,22.06ZM201.278,20.9c-1.092,1.164-2.911,1.019-4.439.91v-6.55s3.2-.728,4.548,1.055A4.509,4.509,0,0,1,201.278,20.9Z" transform="translate(-122.645 -8.27)"/>
  <path id="Path_83" data-name="Path 83" d="M397.992,50.4a2.221,2.221,0,1,0,0,4.439,2.205,2.205,0,0,0,2.22-2.22A2.228,2.228,0,0,0,397.992,50.4Zm0,4.185a1.965,1.965,0,1,1,2-1.965A1.965,1.965,0,0,1,397.992,54.585Z" transform="translate(-251.715 -32.061)"/>
  <path id="Path_84" data-name="Path 84" d="M400.9,54.21a.7.7,0,0,0,.4-.619c0-.437-.291-.691-.8-.691h-1.2v2.474h.4v-.982h.691c.4,0,.509.182.509.619a.661.661,0,0,0,.073.4h.473c-.109-.109-.109-.4-.109-.691C401.3,54.319,401.083,54.21,400.9,54.21Zm-.437-.182h-.728v-.8h.728c.218,0,.473.036.473.4A.424.424,0,0,1,400.464,54.028Z" transform="translate(-254.005 -33.651)"/>
</svg>
