<svg id="prenatal" xmlns="http://www.w3.org/2000/svg" width="125.239" height="24.159" viewBox="0 0 125.239 24.159">
  <path id="Path_61" data-name="Path 61" d="M14.2,22.7h3.423a2.3,2.3,0,0,0,1.749-.57A1.836,1.836,0,0,0,19.9,20.8c0-1.445-1.635-2.168-2.244-1.559.57-.57-.152-2.244-1.559-2.244a2,2,0,0,0-1.331.532,2.3,2.3,0,0,0-.57,1.749" transform="translate(-8.799 -10.535)" fill="#cd2f73"/>
  <path id="Path_62" data-name="Path 62" d="M43.7,4.754a1.027,1.027,0,1,0-1.027,1.027A1.023,1.023,0,0,0,43.7,4.754M8.823,0A8.976,8.976,0,0,0,2.51,2.586C.532,4.526,0,6.656,0,9.47V24.112a4.429,4.429,0,0,0,3.271-1.179A4.9,4.9,0,0,0,4.45,19.244V9.356c0-1.787.228-2.814,1.217-3.8A4.49,4.49,0,0,1,8.823,4.336a4.615,4.615,0,0,1,3.195,1.255,4.335,4.335,0,0,1,1.217,3.119,4.366,4.366,0,0,1-1.255,3.119,4.707,4.707,0,0,1-3.651,1.255H5.4c.152,2.7,2.7,3.879,4.488,3.879a6.993,6.993,0,0,0,5.134-1.978,8.157,8.157,0,0,0,2.662-6.275A8.535,8.535,0,0,0,8.823,0" fill="#779651"/>
  <path id="Path_63" data-name="Path 63" d="M188.4,17.1a9.162,9.162,0,0,1,6.389,2.51c1.978,1.978,2.434,4.107,2.434,6.96v8.1a4.429,4.429,0,0,1-3.271-1.179,4.9,4.9,0,0,1-1.179-3.689V26.57c0-1.826-.266-2.89-1.255-3.879a4.453,4.453,0,0,0-6.313.038,4.547,4.547,0,0,0-1.255,3.195,4.867,4.867,0,0,0,1.217,3.309,4.727,4.727,0,0,0,3.689,1.293h2.928a3.639,3.639,0,0,1-3.917,3.993,8.237,8.237,0,0,1-5.819-2.092,8.584,8.584,0,0,1-2.548-6.465,8.783,8.783,0,0,1,8.9-8.861" transform="translate(-111.233 -10.597)" fill="#cd2f73"/>
  <path id="Path_64" data-name="Path 64" d="M95.706,29.036c-1.673,1.521-2.624,1.787-4.031,1.711a4.933,4.933,0,0,1-1.293-.3c2.662-2.4,9.28-8.367,9.47-8.519a8.9,8.9,0,0,0-7.416-4.64,9.162,9.162,0,0,0-6.275,2.244,8.633,8.633,0,0,0-2.89,6.047,8.534,8.534,0,0,0,8.253,9.28,8.347,8.347,0,0,0,6.313-2.548,4.118,4.118,0,0,0,.3-5.439l-2.434,2.168m-8.1-3.119a4.732,4.732,0,0,1,1.521-3.461,4.157,4.157,0,0,1,4.64-.8c-.647.609-4.145,3.841-6.047,5.629a8.315,8.315,0,0,1-.114-1.369" transform="translate(-51.59 -10.705)" fill="#779651"/>
  <path id="Path_65" data-name="Path 65" d="M134.05,29.965a4.9,4.9,0,0,1-1.179,3.689,4.37,4.37,0,0,1-3.271,1.179V26.428c0-2.776.685-4.906,2.51-6.618a9.2,9.2,0,0,1,12.589-.038,8.721,8.721,0,0,1,2.472,6.694v7.949h-4.412V26.466c0-1.787-.266-2.7-1.179-3.613a4.6,4.6,0,0,0-6.313,0,4.5,4.5,0,0,0-1.179,3.613l-.038,3.5" transform="translate(-80.311 -10.721)" fill="#cd2f73"/>
  <path id="Path_66" data-name="Path 66" d="M56.561,17.1a9.136,9.136,0,0,0-6.351,2.586C48.194,21.7,47.7,23.832,47.7,26.76v7.949a4.429,4.429,0,0,0,3.271-1.179,4.9,4.9,0,0,0,1.179-3.689v-3.8a4.25,4.25,0,0,1,4.412-4.6,4.276,4.276,0,0,1,2.776.989l3.157-3.157A8.854,8.854,0,0,0,56.561,17.1" transform="translate(-29.559 -10.597)" fill="#779651"/>
  <path id="Path_67" data-name="Path 67" d="M239.023,13.942V9.682H234.65V9.568a4.9,4.9,0,0,0-1.179-3.689A4.37,4.37,0,0,0,230.2,4.7V17.555c0,3.385.913,5.286,2.548,6.922a8.8,8.8,0,0,0,6.237,2.51V22.651a4.694,4.694,0,0,1-3.157-1.217,4.4,4.4,0,0,1-1.217-3.5V13.942h4.412m9.736-4.526a9.162,9.162,0,0,1,6.389,2.51c1.978,1.978,2.434,4.107,2.434,6.96v8.1a4.429,4.429,0,0,1-3.271-1.179,4.9,4.9,0,0,1-1.179-3.689V18.886c0-1.826-.266-2.89-1.255-3.879a4.453,4.453,0,0,0-6.313.038,4.547,4.547,0,0,0-1.255,3.195,4.867,4.867,0,0,0,1.217,3.309,4.727,4.727,0,0,0,3.689,1.293h2.928a3.639,3.639,0,0,1-3.917,3.993,8.172,8.172,0,0,1-5.819-2.092,8.584,8.584,0,0,1-2.548-6.465,8.783,8.783,0,0,1,8.9-8.861m16.011,12.018a4.4,4.4,0,0,1-1.217-3.5V9.606a4.9,4.9,0,0,0-1.179-3.689A4.37,4.37,0,0,0,259.1,4.738V17.593c0,3.385.913,5.286,2.548,6.922a8.8,8.8,0,0,0,6.237,2.51V22.651a4.671,4.671,0,0,1-3.119-1.217" transform="translate(-142.651 -2.913)" fill="#cd2f73"/>
</svg>
