<svg id="resize" xmlns="http://www.w3.org/2000/svg" width="65.424" height="65.424" viewBox="0 0 65.424 65.424">
  <g id="Group_120" data-name="Group 120">
    <g id="Group_119" data-name="Group 119">
      <path id="Path_189" data-name="Path 189" d="M63.508,0h-46a1.917,1.917,0,0,0-1.917,1.917V30.668H1.917A1.917,1.917,0,0,0,0,32.584V63.508a1.917,1.917,0,0,0,1.917,1.917H32.84a1.917,1.917,0,0,0,1.917-1.917V49.835H63.508a1.917,1.917,0,0,0,1.917-1.917v-46A1.917,1.917,0,0,0,63.508,0ZM30.923,61.591H3.833V34.5H15.589V47.918a1.917,1.917,0,0,0,1.917,1.917H30.923Zm0-15.589h-11.5V34.5h11.5Zm30.668,0H34.757V32.584a1.917,1.917,0,0,0-1.917-1.917H19.423V3.833H61.591Z" fill="#fff"/>
    </g>
  </g>
  <g id="Group_122" data-name="Group 122" transform="translate(38.59 7.667)">
    <g id="Group_121" data-name="Group 121">
      <path id="Path_190" data-name="Path 190" d="M321.167,61.911A1.917,1.917,0,0,0,319.249,60h-11.5a1.917,1.917,0,1,0,0,3.833h6.873L302.561,75.9a1.917,1.917,0,1,0,2.711,2.711l12.062-12.062v6.873a1.917,1.917,0,0,0,3.833,0v-11.5S321.167,61.913,321.167,61.911Z" transform="translate(-301.999 -60)" fill="#fff"/>
    </g>
  </g>
</svg>
